<svg xmlns="http://www.w3.org/2000/svg" viewBox="0 0 52.32 47.01"><defs><style>.cls-1{fill:#e55039;}</style></defs><title>chat</title><g id="Layer_2" data-name="Layer 2"><g id="Layer_1-2" data-name="Layer 1"><path class="cls-1" d="M26.16,10.22a1,1,0,1,0,1,1A1,1,0,0,0,26.16,10.22Z"/><path class="cls-1" d="M9.2,28.61a1,1,0,1,0-1-1A1,1,0,0,0,9.2,28.61Z"/><path class="cls-1" d="M34.34,0C25.14,0,17.58,6.34,17,14.33c-8.76.44-17,6.76-17,15.3a14.25,14.25,0,0,0,4,9.78,6.21,6.21,0,0,1-1.65,5.85A1,1,0,0,0,3.07,47a11.31,11.31,0,0,0,7.81-3.16A23.34,23.34,0,0,0,18,45c9.19,0,16.74-6.34,17.33-14.33a22.88,22.88,0,0,0,6.13-1.09,11.23,11.23,0,0,0,7.81,3.16A1,1,0,0,0,50,31a6.21,6.21,0,0,1-1.64-5.86,14.28,14.28,0,0,0,4-9.77C52.32,6.45,43.45,0,34.34,0ZM18,42.92a20.53,20.53,0,0,1-7-1.21A1,1,0,0,0,9.85,42a9.19,9.19,0,0,1-4.58,2.72,8.25,8.25,0,0,0,.62-6.08,1,1,0,0,0-.25-.43A12.28,12.28,0,0,1,2,29.63c0-7.2,7.3-13.28,16-13.28,8.16,0,15.32,5.67,15.32,13.28C33.31,37,26.44,42.92,18,42.92Zm28.69-19a1.07,1.07,0,0,0-.25.44,8.26,8.26,0,0,0,.63,6.08,9.18,9.18,0,0,1-4.59-2.72,1,1,0,0,0-1.13-.26,20.42,20.42,0,0,1-6,1.18,14.64,14.64,0,0,0-5.53-10.2H43.12a1,1,0,1,0,0-2H26.66a19,19,0,0,0-7.61-2C19.64,7.47,26.27,2,34.34,2,43,2,50.28,8.13,50.28,15.33A12.26,12.26,0,0,1,46.68,23.87Z"/><path class="cls-1" d="M26.16,26.57H13.28a1,1,0,0,0,0,2H26.16a1,1,0,0,0,0-2Z"/><path class="cls-1" d="M26.16,32.7H9.2a1,1,0,1,0,0,2h17a1,1,0,1,0,0-2Z"/><path class="cls-1" d="M43.12,10.22H30.25a1,1,0,0,0,0,2H43.12a1,1,0,1,0,0-2Z"/></g></g></svg>