<svg xmlns="http://www.w3.org/2000/svg" viewBox="0 0 35.13 37.26"><defs><style>.cls-1{fill:#e55039;}</style></defs><title>feedback</title><g id="Layer_2" data-name="Layer 2"><g id="Layer_1-2" data-name="Layer 1"><path class="cls-1" d="M14.37,23A5.22,5.22,0,0,0,16,19.25V16.4a3.5,3.5,0,0,0,.71-2.13v-3a.73.73,0,0,0-.72-.73H10A4.4,4.4,0,0,0,5.65,15v4.27A5.22,5.22,0,0,0,7.24,23,7.56,7.56,0,0,0,0,30.59v5.94a.73.73,0,0,0,.72.73H20.89a.73.73,0,0,0,.72-.73V30.59A7.56,7.56,0,0,0,14.37,23ZM10,12h5.21v2.24a2.06,2.06,0,0,1-2,2.07H7.09V15h0A2.94,2.94,0,0,1,10,12ZM7.09,19.25V17.8h6.1a3.47,3.47,0,0,0,1.33-.27v1.72a3.72,3.72,0,1,1-7.43,0Zm6.64,5.21-2.82,4.82L8.09,24.46ZM20.17,35.8H18.55V30.71a.72.72,0,1,0-1.44,0V35.8H4.71V30.71a.72.72,0,0,0-1.44,0V35.8H1.44V30.59a6.13,6.13,0,0,1,5-6l3.82,6.53a.7.7,0,0,0,.62.36.73.73,0,0,0,.62-.36l3.8-6.49a6.11,6.11,0,0,1,4.84,6V35.8Z"/><path class="cls-1" d="M31.52,0H27.45a.73.73,0,0,0-.72.73.73.73,0,0,0,.72.73h4.07a2.17,2.17,0,0,1,2.16,2.18v9.75a2.17,2.17,0,0,1-2.16,2.18H28.9a.74.74,0,0,0-.51.21L25,19.22V16.3a.73.73,0,0,0-.72-.73H18.12a.73.73,0,0,0,0,1.46h5.42V21a.73.73,0,0,0,.45.67.65.65,0,0,0,.27.05.69.69,0,0,0,.51-.21L29.2,17h2.32a3.63,3.63,0,0,0,3.61-3.64V3.64A3.63,3.63,0,0,0,31.52,0Z"/><path class="cls-1" d="M25.33.21A.74.74,0,0,0,24.82,0a.75.75,0,0,0-.51.21.78.78,0,0,0-.21.52.74.74,0,0,0,.21.51.72.72,0,0,0,.51.22.7.7,0,0,0,.51-.22.69.69,0,0,0,.21-.51A.73.73,0,0,0,25.33.21Z"/><path class="cls-1" d="M22.19,0H18.12a3.63,3.63,0,0,0-3.6,3.64v4a.72.72,0,0,0,1.44,0v-4a2.17,2.17,0,0,1,2.16-2.18h4.07a.73.73,0,0,0,.72-.73A.73.73,0,0,0,22.19,0Z"/><path class="cls-1" d="M15.41,31.08h-1a.73.73,0,0,0,0,1.45h1a.73.73,0,0,0,0-1.45Z"/><path class="cls-1" d="M9.61,19a.75.75,0,0,0-.51-.21.74.74,0,0,0-.51.21.78.78,0,0,0-.21.52.74.74,0,0,0,.21.51.7.7,0,0,0,.51.22.72.72,0,0,0,.51-.22.74.74,0,0,0,.21-.51A.78.78,0,0,0,9.61,19Z"/><path class="cls-1" d="M13,19a.75.75,0,0,0-.51-.21A.74.74,0,0,0,12,19a.78.78,0,0,0-.21.52.74.74,0,0,0,.21.51.7.7,0,0,0,.51.22.72.72,0,0,0,.51-.22.74.74,0,0,0,.21-.51A.78.78,0,0,0,13,19Z"/><path class="cls-1" d="M27.48,6.51A2.66,2.66,0,0,0,23,4.73a2.75,2.75,0,0,0-.84,2,.72.72,0,1,0,1.44,0A1.21,1.21,0,0,1,24,5.8a1.17,1.17,0,0,1,.92-.33,1.24,1.24,0,0,1,.18,2.44,1.26,1.26,0,0,0-1,1.24v1.46a.72.72,0,1,0,1.44,0V9.3A2.68,2.68,0,0,0,27.48,6.51Z"/><path class="cls-1" d="M25.33,12.5a.74.74,0,0,0-.51-.21.75.75,0,0,0-.51.21.78.78,0,0,0-.21.52.74.74,0,0,0,.21.51.72.72,0,0,0,.51.22.7.7,0,0,0,.51-.22.69.69,0,0,0,.21-.51A.73.73,0,0,0,25.33,12.5Z"/></g></g></svg>