<svg xmlns="http://www.w3.org/2000/svg" viewBox="0 0 19.97 19.97"><defs><style>.cls-1{fill:#9b9b9b;}</style></defs><title>admin</title><g id="Layer_2" data-name="Layer 2"><g id="Panel"><g id="Settings"><path class="cls-1" d="M19.91,8.88a.65.65,0,0,0-.64-.49,2.21,2.21,0,0,1-1.51-3.84.57.57,0,0,0,.06-.76A9.9,9.9,0,0,0,16.24,2.2a.55.55,0,0,0-.76.06A2.31,2.31,0,0,1,13,2.82,2.21,2.21,0,0,1,11.64.65a.55.55,0,0,0-.49-.58A10,10,0,0,0,8.9.06a.55.55,0,0,0-.49.57A2.23,2.23,0,0,1,7,2.76,2.29,2.29,0,0,1,4.57,2.2a.56.56,0,0,0-.76-.06A10.09,10.09,0,0,0,2.2,3.73a.55.55,0,0,0,.06.76A2.22,2.22,0,0,1,2.82,7,2.32,2.32,0,0,1,.64,8.33a.54.54,0,0,0-.57.49,10.14,10.14,0,0,0,0,2.27.66.66,0,0,0,.66.5A2.17,2.17,0,0,1,2.77,13a2.2,2.2,0,0,1-.56,2.47.57.57,0,0,0-.06.76,10.33,10.33,0,0,0,1.58,1.59.55.55,0,0,0,.76-.06A2.31,2.31,0,0,1,7,17.15a2.21,2.21,0,0,1,1.35,2.17.55.55,0,0,0,.49.58A8.88,8.88,0,0,0,10,20a10.14,10.14,0,0,0,1.1-.06.55.55,0,0,0,.49-.57,2.23,2.23,0,0,1,1.37-2.13,2.29,2.29,0,0,1,2.47.56.56.56,0,0,0,.76.06,9.69,9.69,0,0,0,1.61-1.59.55.55,0,0,0-.06-.76A2.22,2.22,0,0,1,17.15,13a2.24,2.24,0,0,1,2.05-1.36h.12a.55.55,0,0,0,.58-.49A10.14,10.14,0,0,0,19.91,8.88ZM10,13.34A3.33,3.33,0,1,1,13.33,10,3.34,3.34,0,0,1,10,13.34Z"/></g></g></g></svg>