<svg xmlns="http://www.w3.org/2000/svg" viewBox="0 0 27.98 20.99"><defs><style>.cls-1{opacity:0.5;}.cls-2{fill:#5e5e68;}</style></defs><title>code</title><g id="Layer_2" data-name="Layer 2"><g id="Panel"><g id="sidemenu"><g class="cls-1"><path class="cls-2" d="M17.45.28,16.5,0a.46.46,0,0,0-.36,0,.51.51,0,0,0-.24.3L10.2,20.1a.43.43,0,0,0,0,.37.46.46,0,0,0,.29.24l1,.26a.42.42,0,0,0,.36,0,.46.46,0,0,0,.24-.3L17.78.89a.44.44,0,0,0,0-.37A.46.46,0,0,0,17.45.28Z"/><path class="cls-2" d="M8.9,4.14a.51.51,0,0,0-.15-.36L8,3a.48.48,0,0,0-.7,0L.15,10.15A.47.47,0,0,0,0,10.5a.49.49,0,0,0,.15.35L7.28,18A.46.46,0,0,0,8,18l.77-.76a.48.48,0,0,0,0-.7l-6-6,6-6A.49.49,0,0,0,8.9,4.14Z"/><path class="cls-2" d="M27.83,10.15,20.7,3A.48.48,0,0,0,20,3l-.77.76a.51.51,0,0,0-.15.36.49.49,0,0,0,.15.35l6,6-6,6a.48.48,0,0,0,0,.7L20,18a.46.46,0,0,0,.7,0l7.13-7.12A.49.49,0,0,0,28,10.5.47.47,0,0,0,27.83,10.15Z"/></g></g></g></g></svg>