<svg xmlns="http://www.w3.org/2000/svg" viewBox="0 0 20 20"><defs><style>.cls-1{fill:#e74c3c;}.cls-2{fill:#fff;}</style></defs><title>dashboard</title><g id="Layer_2" data-name="Layer 2"><g id="Panel"><g id="sidemenu"><path class="cls-1" d="M.78,19.87a.65.65,0,0,1-.65-.65V14.53a.66.66,0,0,1,.65-.66H8.83a.66.66,0,0,1,.65.66v4.69a.65.65,0,0,1-.65.65Zm.66-1.31H8.17V15.19H1.44Z"/><path class="cls-2" d="M8.83,14a.53.53,0,0,1,.53.53v4.69a.53.53,0,0,1-.53.53h-8a.53.53,0,0,1-.53-.53V14.53A.53.53,0,0,1,.78,14H8.83M1.31,18.69h7V15.06h-7v3.63m7.52-4.94h-8a.78.78,0,0,0-.78.78v4.69A.78.78,0,0,0,.78,20H8.83a.78.78,0,0,0,.78-.78V14.53a.78.78,0,0,0-.78-.78ZM1.56,18.44V15.31H8.05v3.13Z"/><path class="cls-1" d="M.78,12.84a.65.65,0,0,1-.65-.65V.78A.66.66,0,0,1,.78.12H8.83a.66.66,0,0,1,.65.66V12.19a.65.65,0,0,1-.65.65Zm.66-1.31H8.17V1.44H1.44Z"/><path class="cls-2" d="M8.83.25a.53.53,0,0,1,.53.53V12.19a.53.53,0,0,1-.53.53h-8a.53.53,0,0,1-.53-.53V.78A.53.53,0,0,1,.78.25H8.83M1.31,11.66h7V1.31h-7V11.66M8.83,0h-8A.78.78,0,0,0,0,.78V12.19A.78.78,0,0,0,.78,13H8.83a.78.78,0,0,0,.78-.78V.78A.78.78,0,0,0,8.83,0ZM1.56,11.41V1.56H8.05v9.85Z"/><path class="cls-1" d="M11.17,6.12a.65.65,0,0,1-.65-.65V.78a.66.66,0,0,1,.65-.66h8a.67.67,0,0,1,.66.66V5.47a.66.66,0,0,1-.66.65Zm.66-1.31h6.73V1.44H11.83Z"/><path class="cls-2" d="M19.22.25a.53.53,0,0,1,.53.53V5.47a.53.53,0,0,1-.53.53h-8a.53.53,0,0,1-.53-.53V.78a.53.53,0,0,1,.53-.53h8M11.7,4.94h7V1.31h-7V4.94M19.22,0h-8a.78.78,0,0,0-.78.78V5.47a.78.78,0,0,0,.78.78h8A.78.78,0,0,0,20,5.47V.78A.78.78,0,0,0,19.22,0ZM12,4.69V1.56h6.49V4.69Z"/><path class="cls-1" d="M11.17,19.87a.65.65,0,0,1-.65-.65V7.81a.65.65,0,0,1,.65-.65h8a.66.66,0,0,1,.66.65V19.22a.66.66,0,0,1-.66.65Zm.66-1.31h6.73V8.47H11.83Z"/><path class="cls-2" d="M19.22,7.28a.53.53,0,0,1,.53.53V19.22a.53.53,0,0,1-.53.53h-8a.53.53,0,0,1-.53-.53V7.81a.53.53,0,0,1,.53-.53h8M11.7,18.69h7V8.34h-7V18.69M19.22,7h-8a.78.78,0,0,0-.78.78V19.22a.78.78,0,0,0,.78.78h8a.78.78,0,0,0,.78-.78V7.81A.78.78,0,0,0,19.22,7ZM12,18.44V8.59h6.49v9.85Z"/></g></g></g></svg>