<svg xmlns="http://www.w3.org/2000/svg" viewBox="0 0 22.67 22.67"><defs><style>.cls-1{opacity:0.5;}.cls-2{fill:#5e5e68;}</style></defs><title>edit-widget</title><g id="Layer_2" data-name="Layer 2"><g id="Panel"><g id="sidemenu"><g class="cls-1"><path class="cls-2" d="M20.61,0H2.06A2.06,2.06,0,0,0,0,2.06V20.61a2.06,2.06,0,0,0,2.06,2.06H20.61a2.07,2.07,0,0,0,2.06-2.06V2.06A2.06,2.06,0,0,0,20.61,0Zm1,20.61a1,1,0,0,1-1,1H2.06a1,1,0,0,1-1-1V2.06a1,1,0,0,1,1-1H20.61a1,1,0,0,1,1,1Z"/><path class="cls-2" d="M12.88,8.24h-1V3.61a.52.52,0,1,0-1,0V8.24h-1a.52.52,0,0,0-.52.52v2.06a.51.51,0,0,0,.52.51h1v1.55a.52.52,0,0,0,1,0V11.33h1a.51.51,0,0,0,.51-.51V8.76A.51.51,0,0,0,12.88,8.24Zm-.52,2.06H10.3v-1h2.06Z"/><path class="cls-2" d="M19.06,7.21H18V3.61a.52.52,0,1,0-1,0v3.6H16a.52.52,0,0,0-.52.52V9.79a.52.52,0,0,0,.52.51h1v2.58a.52.52,0,0,0,1,0V10.3h1a.51.51,0,0,0,.52-.51V7.73A.52.52,0,0,0,19.06,7.21Zm-.51,2.06H16.49v-1h2.06Z"/><path class="cls-2" d="M6.7,5.15h-1V3.61a.52.52,0,1,0-1,0V5.15h-1a.52.52,0,0,0-.52.52V7.73a.51.51,0,0,0,.52.51h1v4.64a.52.52,0,0,0,1,0V8.24h1a.51.51,0,0,0,.51-.51V5.67A.51.51,0,0,0,6.7,5.15ZM6.18,7.21H4.12v-1H6.18Z"/><path class="cls-2" d="M11.33,15.45a2.07,2.07,0,1,0,2.06,2.07A2.07,2.07,0,0,0,11.33,15.45Zm0,3.1a1,1,0,1,1,0-2.06,1,1,0,1,1,0,2.06Z"/><path class="cls-2" d="M5.15,15.45a2.07,2.07,0,1,0,2.06,2.07A2.07,2.07,0,0,0,5.15,15.45Zm0,3.1a1,1,0,1,1,1-1A1,1,0,0,1,5.15,18.55Z"/><path class="cls-2" d="M17.52,15.45a2.07,2.07,0,1,0,2.06,2.07A2.07,2.07,0,0,0,17.52,15.45Zm0,3.1a1,1,0,1,1,1-1A1,1,0,0,1,17.52,18.55Z"/></g></g></g></g></svg>