<svg xmlns="http://www.w3.org/2000/svg" viewBox="0 0 23.18 23.17"><defs><style>.cls-1{opacity:0.5;}.cls-2{fill:#5e5e68;}</style></defs><title>insights</title><g id="Layer_2" data-name="Layer 2"><g id="Panel"><g id="sidemenu"><g class="cls-1"><path class="cls-2" d="M9.66,1.55a8.11,8.11,0,1,0,8.11,8.11A8.11,8.11,0,0,0,9.66,1.55Zm0,.77a7.31,7.31,0,0,1,6,3.11l-1,1a1.53,1.53,0,0,0-2.32,1.32,1.5,1.5,0,0,0,.21.78L10.06,11A1.51,1.51,0,0,0,8.5,11L6.74,9.28A1.54,1.54,0,0,0,5.42,7,1.54,1.54,0,0,0,3.93,8.11H2.49A7.34,7.34,0,0,1,9.66,2.32Zm5,5.4A.77.77,0,1,1,13.91,7,.77.77,0,0,1,14.68,7.72Zm-4.63,4.64a.78.78,0,1,1-.77-.77A.77.77,0,0,1,10.05,12.36ZM6.19,8.5a.78.78,0,1,1-.77-.78A.78.78,0,0,1,6.19,8.5Zm7,7.57a7.34,7.34,0,0,1-10.9-6.4,6.85,6.85,0,0,1,0-.79H3.93A1.53,1.53,0,0,0,5.42,10a1.5,1.5,0,0,0,.77-.22L8,11.58a1.5,1.5,0,0,0-.22.78,1.55,1.55,0,0,0,3.09,0,1.5,1.5,0,0,0-.22-.78l2.53-2.53a1.54,1.54,0,0,0,2.33-1.33,1.67,1.67,0,0,0-.22-.78l.84-.84A7.34,7.34,0,0,1,13.23,16.07Z"/><path class="cls-2" d="M19.32,3.86A1.55,1.55,0,0,0,20.81,2.7h2.37V1.93H20.81a1.54,1.54,0,0,0-3,.39A1.56,1.56,0,0,0,18,3.1l-.68.68a9.65,9.65,0,1,0-2.41,14l1.17,1.16.54.55,3.11,3.11a2,2,0,1,0,2.87-2.87l-3.11-3.1-.55-.55-1.16-1.17a9.64,9.64,0,0,0,0-10.47l.77-.78A1.42,1.42,0,0,0,19.32,3.86Zm0-2.31a.77.77,0,0,1,0,1.54.77.77,0,1,1,0-1.54ZM22,20.26a1.26,1.26,0,0,1,0,1.77,1.24,1.24,0,0,1-1.77,0l0,0-3.11-3.11,1.77-1.77Zm-3.66-3.65-1.77,1.77-1.07-1.07.16-.13.18-.14.25-.22.12-.12c.16-.15.31-.3.46-.46l.12-.12.21-.25.15-.17a1,1,0,0,1,.13-.16Zm-1.49-1.8c-.12.17-.25.34-.38.5l-.12.14c-.12.13-.24.27-.37.4l-.17.16a4.73,4.73,0,0,1-.4.37l-.13.12-.5.38a8.9,8.9,0,1,1,2.07-2.07Z"/></g></g></g></g></svg>