<svg xmlns="http://www.w3.org/2000/svg" viewBox="0 0 18.67 18.67"><defs><style>.cls-1{opacity:0.5;}.cls-2{fill:#5e5e68;}</style></defs><title>support</title><g id="Layer_2" data-name="Layer 2"><g id="Panel"><g id="sidemenu"><g class="cls-1"><circle class="cls-2" cx="9.34" cy="13.8" r="0.91"/><path class="cls-2" d="M9.34,0a9.34,9.34,0,1,0,9.33,9.34A9.34,9.34,0,0,0,9.34,0Zm0,17.21a7.88,7.88,0,1,1,7.87-7.87A7.87,7.87,0,0,1,9.34,17.21Z"/><path class="cls-2" d="M9.34,4.69A2.92,2.92,0,0,0,6.42,7.6a.73.73,0,0,0,1.46,0A1.46,1.46,0,1,1,9.34,9.06a.73.73,0,0,0-.73.73v1.83a.73.73,0,0,0,1.46,0V10.43a2.92,2.92,0,0,0-.73-5.74Z"/></g></g></g></g></svg>