<svg xmlns="http://www.w3.org/2000/svg" viewBox="0 0 20.77 19.04"><defs><style>.cls-1{fill-opacity:0.5;opacity:0.5;}</style></defs><title>users</title><g id="Layer_2" data-name="Layer 2"><g id="Panel"><g id="sidemenu"><path class="cls-1" d="M19,14.85l-3.3-1.66a.89.89,0,0,1-.51-.82V11.2a3.52,3.52,0,0,0,.25-.33,7.86,7.86,0,0,0,1-2,1.38,1.38,0,0,0,.81-1.25V6.23A1.4,1.4,0,0,0,17,5.32V3.48a3.1,3.1,0,0,0-.72-2.26A4.37,4.37,0,0,0,12.81,0,4.35,4.35,0,0,0,9.38,1.22a3,3,0,0,0-.72,1.67,4.43,4.43,0,0,0-2.08-.47A3.46,3.46,0,0,0,2.77,5.54V7.12a1.2,1.2,0,0,0-.35.81v1.2a1.21,1.21,0,0,0,.46.95,5.2,5.2,0,0,0,1.26,2.18v1a.75.75,0,0,1-.41.66l-2.3,1.45A2.74,2.74,0,0,0,0,17.72V19H20.77v-1.4A3.09,3.09,0,0,0,19,14.85ZM4.85,17.57v.78H.69v-.63a2.06,2.06,0,0,1,1.09-1.81l2.3-1.44a1.44,1.44,0,0,0,.75-1.26V12l-.11-.1A4.62,4.62,0,0,1,3.52,9.8l0-.14-.12-.07a.56.56,0,0,1-.25-.46V7.93a.62.62,0,0,1,.23-.41l.11-.1V5.56c0-.1.19-2.44,3.12-2.44a3.63,3.63,0,0,1,2.07.56V5.32a1.39,1.39,0,0,0-.34.91V7.62a1.53,1.53,0,0,0,0,.3s0,.08,0,.12l.06.17h0a1.22,1.22,0,0,0,.38.47v0A2.17,2.17,0,0,0,8.9,9l0,.09s0,0,0,0,0,.08,0,.12,0,.12.07.19l0,.08.09.21s0,0,0,.05l0,0s0,0,0,.06l.11.22v0c0,.05.05.09.07.13a1.28,1.28,0,0,0,.11.2l.05.09.14.24,0,0,.22.31,0,.06,0,0v1.14a.92.92,0,0,1-.48.81l-.91.49H8.49l-.07.14L6.47,14.83A3.13,3.13,0,0,0,4.85,17.57Zm15.23.78H5.54v-.78a2.4,2.4,0,0,1,1.27-2.13l3.08-1.69a1.6,1.6,0,0,0,.84-1.41V11h0l-.07-.08h0l-.06-.08h0l-.07-.08h0l-.19-.28h0c0-.05-.07-.11-.11-.17h0c-.07-.14-.16-.28-.24-.45h0c0-.09-.09-.18-.13-.28h0l0,0h0l-.06-.13,0-.05s0-.1-.05-.15a2.47,2.47,0,0,1-.1-.29l0-.06v0l-.09-.34,0-.14L9.32,8.2A.7.7,0,0,1,9,7.62V6.23a.69.69,0,0,1,.23-.51l.12-.1V3.34h0A2.39,2.39,0,0,1,9.9,1.68a3.69,3.69,0,0,1,2.91-1,3.72,3.72,0,0,1,2.9,1,2.46,2.46,0,0,1,.56,1.75v2.2l.11.1a.7.7,0,0,1,.24.51V7.62a.68.68,0,0,1-.5.65L16,8.33l0,.17a7.43,7.43,0,0,1-1,2,3.39,3.39,0,0,1-.29.38l-.08.1v1.42a1.59,1.59,0,0,0,.89,1.44l3.3,1.66a2.41,2.41,0,0,1,1.35,2.17Z"/></g></g></g></svg>