<svg xmlns="http://www.w3.org/2000/svg" viewBox="0 0 23.32 28.11"><defs><style>.cls-1{opacity:0.5;}.cls-2{fill:#5e5e68;}</style></defs><title>widget</title><g id="Layer_2" data-name="Layer 2"><g id="Panel"><g id="sidemenu"><g class="cls-1"><path class="cls-2" d="M11.66,16.7a.42.42,0,0,1-.16,0L.2,11a.36.36,0,0,1-.2-.32.37.37,0,0,1,.2-.32l9-4.5A.36.36,0,0,1,9.69,6a.37.37,0,0,1-.16.48L1.15,10.69l10.51,5.25,10.5-5.25L13.9,6.56a.36.36,0,0,1-.16-.48.37.37,0,0,1,.48-.16l8.9,4.45a.36.36,0,0,1,.2.32.37.37,0,0,1-.2.32l-11.3,5.65A.47.47,0,0,1,11.66,16.7Z"/><path class="cls-2" d="M11.66,28.11a.29.29,0,0,1-.16,0L.2,22.42A.35.35,0,0,1,0,21.94a.37.37,0,0,1,.48-.16l11.14,5.57L22.8,21.78a.36.36,0,0,1,.32.64l-11.3,5.65A.32.32,0,0,1,11.66,28.11Z"/><path class="cls-2" d="M23,22.46a.36.36,0,0,1-.36-.36V10.69a.36.36,0,1,1,.71,0V22.1A.35.35,0,0,1,23,22.46Z"/><path class="cls-2" d="M11.66,28.11a.36.36,0,0,1-.36-.36V16.34a.36.36,0,1,1,.71,0V27.75A.36.36,0,0,1,11.66,28.11Z"/><path class="cls-2" d="M.36,22.46A.36.36,0,0,1,0,22.1V10.69a.36.36,0,0,1,.36-.36.36.36,0,0,1,.35.36V22.1A.36.36,0,0,1,.36,22.46Z"/><path class="cls-2" d="M11.66,9.44a.36.36,0,0,1-.36-.36V.36a.36.36,0,1,1,.71,0V9.08A.36.36,0,0,1,11.66,9.44Z"/><path class="cls-2" d="M15.12,4.17a.35.35,0,0,1-.26-.1L11.66.86,8.45,4.07a.35.35,0,0,1-.5,0,.36.36,0,0,1,0-.51L11.41.1a.36.36,0,0,1,.25-.1h0a.39.39,0,0,1,.25.1l3.46,3.46a.36.36,0,0,1,0,.51A.35.35,0,0,1,15.12,4.17Z"/></g></g></g></g></svg>