<svg xmlns="http://www.w3.org/2000/svg" viewBox="0 0 14.31 13.68"><defs><style>.cls-1{fill:white;}</style></defs><title>rating-star</title><g id="Layer_2" data-name="Layer 2"><g id="Layer_1-2" data-name="Layer 1"><path class="cls-1" d="M7.81.4,9.46,3.75a.71.71,0,0,0,.54.39l3.69.54a.73.73,0,0,1,.4,1.24l-2.66,2.6a.71.71,0,0,0-.21.64l.63,3.67a.73.73,0,0,1-1.06.77l-3.3-1.73a.67.67,0,0,0-.67,0L3.52,13.6a.73.73,0,0,1-1-.77L3.1,9.16a.73.73,0,0,0-.21-.64L.22,5.92a.73.73,0,0,1,.4-1.24l3.69-.54a.72.72,0,0,0,.55-.39L6.51.4A.73.73,0,0,1,7.81.4Z"/></g></g></svg>