<svg xmlns="http://www.w3.org/2000/svg" viewBox="0 0 15.11 14.48"><defs><style>.cls-1{fill:none;stroke:#444;stroke-miterlimit:10;stroke-width:0.8px;}</style></defs><title>rating-star-outline</title><g id="Layer_2" data-name="Layer 2"><g id="Layer_1-2" data-name="Layer 1"><path class="cls-1" d="M8.21.8,9.86,4.15a.71.71,0,0,0,.54.39l3.69.54a.73.73,0,0,1,.4,1.24l-2.67,2.6a.72.72,0,0,0-.21.64l.63,3.67a.72.72,0,0,1-1.05.77l-3.3-1.74a.72.72,0,0,0-.67,0L3.92,14a.72.72,0,0,1-1-.77L3.5,9.56a.72.72,0,0,0-.21-.64L.62,6.32A.73.73,0,0,1,1,5.08l3.69-.54a.72.72,0,0,0,.55-.39L6.9.8A.73.73,0,0,1,8.21.8Z"/></g></g></svg>