<svg xmlns="http://www.w3.org/2000/svg" viewBox="0 0 35.88 12.92"><defs><style>.cls-1{fill:#9b9b9b;}</style></defs><title>widget-logo</title><g id="Layer_2" data-name="Layer 2"><g id="Layer_1-2" data-name="Layer 1"><path class="cls-1" d="M16.25,7.93h-.13a.21.21,0,0,0-.22.21V11c0,1-.4,1.42-1.24,1.42s-1.24-.45-1.24-1.42V8.14a.21.21,0,0,0-.21-.21h-.13a.21.21,0,0,0-.22.21V11c0,1-.4,1.42-1.23,1.42s-1.24-.45-1.24-1.42V8.14a.21.21,0,0,0-.22-.21H10a.21.21,0,0,0-.21.21V11c0,1.25.65,2,1.8,2a1.61,1.61,0,0,0,1.51-.79,1.63,1.63,0,0,0,1.52.79c1.15,0,1.8-.72,1.8-2V8.14A.21.21,0,0,0,16.25,7.93Z"/><path class="cls-1" d="M19.26,10.23l1.89-1.94a.2.2,0,0,0,0-.23A.21.21,0,0,0,21,7.93h-.18a.2.2,0,0,0-.15.06L18,10.77V8.14a.21.21,0,0,0-.22-.21h-.13a.21.21,0,0,0-.21.21v4.55a.21.21,0,0,0,.21.21h.13a.22.22,0,0,0,.22-.21V11.57l.91-.94,1.94,2.2a.24.24,0,0,0,.16.07h.18a.21.21,0,0,0,.19-.13.22.22,0,0,0,0-.23Z"/><path class="cls-1" d="M35.84,12.56h0l-1.68-2.23,1.55-2.06a.26.26,0,0,0,0-.23.22.22,0,0,0-.2-.11h-.15A.25.25,0,0,0,35.2,8L33.81,9.88,29.92,4.67A1.73,1.73,0,0,0,28.49,2a1.7,1.7,0,0,0-1.07.38h0a1.72,1.72,0,0,0,.1-.6,1.73,1.73,0,0,0-3.38-.52,1.05,1.05,0,0,0-.06.24,1.94,1.94,0,0,0,0,.24,5.4,5.4,0,0,1,3,1l.1.07a11.94,11.94,0,0,1,2.33,2.33h0l3.94,5.25-1.68,2.23a.22.22,0,0,0,0,.22.23.23,0,0,0,.2.12h.15a.2.2,0,0,0,.17-.09l1.53-2,1.52,2a.2.2,0,0,0,.17.09h.16a.23.23,0,0,0,.2-.12A.24.24,0,0,0,35.84,12.56Z"/><path class="cls-1" d="M24,7.13h.1V3.67H24a1.73,1.73,0,0,0-1.64,1.73h0A1.73,1.73,0,0,0,24,7.13Z"/><polygon class="cls-1" points="24.05 3.42 24.05 1.69 23.95 1.69 22.31 1.69 23.95 3.32 24.05 3.42"/><path class="cls-1" d="M25.59,10.31a1.23,1.23,0,0,0,.48-1c0-.85-.65-1.36-1.74-1.36h-1.8a.21.21,0,0,0-.22.21v4.55a.22.22,0,0,0,.22.21h1.93c1.53,0,1.86-.76,1.86-1.4A1.23,1.23,0,0,0,25.59,10.31ZM22.87,8.48h1.48c.77,0,1.16.27,1.16.81s-.39.81-1.16.81H22.87Zm1.61,3.87H22.87v-1.7h1.61c1.13,0,1.27.46,1.27.85S25.61,12.35,24.48,12.35Z"/><path class="cls-1" d="M29.24,7.91a2.51,2.51,0,1,0,2.55,2.5A2.47,2.47,0,0,0,29.24,7.91Zm0,4.46a2,2,0,1,1,2-2A1.93,1.93,0,0,1,29.24,12.37Z"/><path class="cls-1" d="M25.85,3.63a.95.95,0,0,0,0,1.89.95.95,0,1,0,0-1.89Zm.32.94a.32.32,0,1,1,.32-.32A.32.32,0,0,1,26.17,4.57Z"/><path class="cls-1" d="M3.27,10.31h0a1.2,1.2,0,0,0,.48-1c0-.85-.65-1.36-1.74-1.36H.22A.21.21,0,0,0,0,8.14v4.55a.22.22,0,0,0,.22.21H2.14C3.68,12.9,4,12.14,4,11.5A1.22,1.22,0,0,0,3.27,10.31ZM.56,8.48H2c.77,0,1.15.27,1.15.81s-.38.81-1.15.81H.56Zm1.61,3.87H.56v-1.7H2.17c1.13,0,1.27.46,1.27.85S3.3,12.35,2.17,12.35Z"/><path class="cls-1" d="M6.86,7.91h0a1.88,1.88,0,0,0-2,2.13v2.65a.22.22,0,0,0,.22.21h.13a.21.21,0,0,0,.21-.21V11.4H8.31v1.29a.21.21,0,0,0,.21.21h.13a.22.22,0,0,0,.22-.21V10A1.88,1.88,0,0,0,6.86,7.91Zm1.45,2.94H5.42V10c0-1,.49-1.57,1.44-1.57S8.31,9,8.31,10Z"/></g></g></svg>