<svg xmlns="http://www.w3.org/2000/svg" viewBox="0 0 31.65 29.41"><defs><style>.cls-1{fill:#e55039;}</style></defs><title>calendar</title><g id="Layer_2" data-name="Layer 2"><g id="Layer_1-2" data-name="Layer 1"><g id="calendar"><path class="cls-1" d="M28.56,2.53H25.61V1.72a1.86,1.86,0,0,0-3.71,0v.81H11.52V1.72A1.79,1.79,0,0,0,9.66,0,1.79,1.79,0,0,0,7.81,1.72v.83l-.17,0H5.18A3,3,0,0,0,2.09,5.4v9.78a.6.6,0,0,0,.62.58.6.6,0,0,0,.62-.58V8.44H25.61a.57.57,0,1,0,0-1.14H3.33V5.4A1.79,1.79,0,0,1,5.18,3.68H7.64l.17,0v.73A1.8,1.8,0,0,0,9.66,6.12a1.8,1.8,0,0,0,1.86-1.73V3.68H21.9v.71a1.86,1.86,0,0,0,3.71,0V3.68h2.95A1.79,1.79,0,0,1,30.41,5.4V27.23a1.11,1.11,0,0,1-2.22,0V25.74a.59.59,0,0,0-.62-.57H20.38a.59.59,0,0,0-.62.57.6.6,0,0,0,.62.58H27v.91a2,2,0,0,0,.28,1H2.35a1.07,1.07,0,0,1-1.11-1v-.91H15.07a.6.6,0,0,0,.62-.58.59.59,0,0,0-.62-.57H8.9a4.58,4.58,0,0,0,1.76-3.57,4.9,4.9,0,0,0-5.07-4.71A4.91,4.91,0,0,0,.52,21.6a4.59,4.59,0,0,0,1.77,3.57H.62a.59.59,0,0,0-.62.57v1.49a2.27,2.27,0,0,0,2.35,2.18h27a2.28,2.28,0,0,0,2.35-2.18V5.4A3,3,0,0,0,28.56,2.53ZM10.28,4.39A.6.6,0,0,1,9.66,5a.59.59,0,0,1-.61-.58V1.72a.59.59,0,0,1,.61-.57.6.6,0,0,1,.62.57Zm14.09,0a.59.59,0,0,1-.61.58.6.6,0,0,1-.62-.58V1.72a.6.6,0,0,1,.62-.57.59.59,0,0,1,.61.57ZM1.76,21.6A3.7,3.7,0,0,1,5.59,18,3.71,3.71,0,0,1,9.43,21.6a3.71,3.71,0,0,1-3.84,3.56A3.71,3.71,0,0,1,1.76,21.6Z"/><path class="cls-1" d="M29,7.46a.68.68,0,0,0-.88,0,.56.56,0,0,0,0,.82.68.68,0,0,0,.88,0,.56.56,0,0,0,0-.82Z"/><path class="cls-1" d="M18.46,25.34a.62.62,0,0,0-.44-.17.61.61,0,0,0-.43.17.52.52,0,0,0-.18.4.55.55,0,0,0,.18.41.64.64,0,0,0,.87,0,.55.55,0,0,0,.18-.41A.52.52,0,0,0,18.46,25.34Z"/><path class="cls-1" d="M14,17.46a2.19,2.19,0,1,0,0,4.37,2.19,2.19,0,1,0,0-4.37Zm0,3.22a1,1,0,1,1,1.12-1A1.07,1.07,0,0,1,14,20.68Z"/><path class="cls-1" d="M19.75,17.46a2.19,2.19,0,1,0,2.35,2.19A2.28,2.28,0,0,0,19.75,17.46Zm0,3.22a1,1,0,1,1,1.12-1A1.07,1.07,0,0,1,19.75,20.68Z"/><path class="cls-1" d="M25.52,17.46a2.19,2.19,0,1,0,2.35,2.19A2.28,2.28,0,0,0,25.52,17.46Zm0,3.22a1,1,0,1,1,1.12-1A1.07,1.07,0,0,1,25.52,20.68Z"/><path class="cls-1" d="M8.22,11.49a2.27,2.27,0,0,0-2.35,2.18,2.27,2.27,0,0,0,2.35,2.18,2.27,2.27,0,0,0,2.34-2.18A2.27,2.27,0,0,0,8.22,11.49Zm0,3.22a1,1,0,1,1,1.11-1A1.08,1.08,0,0,1,8.22,14.71Z"/><path class="cls-1" d="M19.75,11.49a2.28,2.28,0,0,0-2.35,2.18,2.36,2.36,0,0,0,4.7,0A2.27,2.27,0,0,0,19.75,11.49Zm0,3.22a1,1,0,1,1,1.12-1A1.08,1.08,0,0,1,19.75,14.71Z"/><path class="cls-1" d="M25.52,11.49a2.28,2.28,0,0,0-2.35,2.18,2.36,2.36,0,0,0,4.7,0A2.27,2.27,0,0,0,25.52,11.49Zm0,3.22a1,1,0,1,1,1.12-1A1.08,1.08,0,0,1,25.52,14.71Z"/><path class="cls-1" d="M14,11.49a2.27,2.27,0,0,0-2.34,2.18A2.27,2.27,0,0,0,14,15.85a2.27,2.27,0,0,0,2.35-2.18A2.27,2.27,0,0,0,14,11.49Zm0,3.22a1,1,0,1,1,1.12-1A1.08,1.08,0,0,1,14,14.71Z"/><path class="cls-1" d="M7.79,20.2a.63.63,0,0,0-.87,0l-2,1.87-.69-.64a.66.66,0,0,0-.87,0,.53.53,0,0,0,0,.81l1.12,1.05a.64.64,0,0,0,.44.17.61.61,0,0,0,.43-.17L7.79,21A.53.53,0,0,0,7.79,20.2Z"/></g></g></g></svg>