<svg xmlns="http://www.w3.org/2000/svg" viewBox="0 0 31.26 33.83"><defs><style>.cls-1{fill:#e55039;}</style></defs><title>checklist</title><g id="Layer_2" data-name="Layer 2"><g id="Layer_1-2" data-name="Layer 1"><path class="cls-1" d="M23.45,20.86a.56.56,0,0,0-.56-.56H19.54a.56.56,0,0,0-.56.56.57.57,0,0,0,.56.57h3.35A.57.57,0,0,0,23.45,20.86Z"/><path class="cls-1" d="M21.21,6.2V3.38a.56.56,0,1,0-1.11,0V6.2A2.8,2.8,0,0,0,22.89,9h5V19.74a.56.56,0,1,0,1.12,0V8.46a.57.57,0,0,0-.56-.57H22.89A1.68,1.68,0,0,1,21.21,6.2Z"/><path class="cls-1" d="M22.89,13.53H18.42a.57.57,0,0,0-.56.57.56.56,0,0,0,.56.56h4.47a.56.56,0,0,0,.56-.56A.57.57,0,0,0,22.89,13.53Z"/><path class="cls-1" d="M16.75,14.1a.57.57,0,0,0-.56-.57H12.84a.57.57,0,0,0-.56.57.56.56,0,0,0,.56.56h3.35A.56.56,0,0,0,16.75,14.1Z"/><path class="cls-1" d="M12.84,16.92a.56.56,0,1,0,0,1.12H14a.56.56,0,0,0,0-1.12Z"/><path class="cls-1" d="M12.84,11.28h5.58a.57.57,0,0,0,.56-.57.56.56,0,0,0-.56-.56H12.84a.56.56,0,0,0-.56.56A.57.57,0,0,0,12.84,11.28Z"/><path class="cls-1" d="M16.19,18h5.58a.56.56,0,0,0,0-1.12H16.19a.56.56,0,0,0,0,1.12Z"/><path class="cls-1" d="M19.54,23.68a.57.57,0,0,0-.56.57.56.56,0,0,0,.56.56h1.11a.56.56,0,0,0,.56-.56.57.57,0,0,0-.56-.57Z"/><path class="cls-1" d="M17.31,20.3H12.84a.56.56,0,0,0-.56.56.57.57,0,0,0,.56.57h4.47a.57.57,0,0,0,.55-.57A.56.56,0,0,0,17.31,20.3Z"/><path class="cls-1" d="M17.31,23.68H12.84a.57.57,0,0,0-.56.57.56.56,0,0,0,.56.56h4.47a.56.56,0,0,0,.55-.56A.57.57,0,0,0,17.31,23.68Z"/><path class="cls-1" d="M30.6,23.23,29.48,22.1a2.07,2.07,0,0,0-3,0l-7.32,7.39a.58.58,0,0,0-.16.4v3.38a.56.56,0,0,0,.56.56h3.35a.55.55,0,0,0,.39-.16l7.32-7.39A2.08,2.08,0,0,0,30.6,23.23Zm-4.86,1.19.88.9-4.85,4.9-.88-.9ZM20.1,32.7V30.12l2.56,2.58Zm3.35-.79-.89-.9,4.85-4.9.89.9Zm6.36-6.43-.73.73-2.56-2.58.73-.73a.94.94,0,0,1,1.44,0L29.81,24A1,1,0,0,1,29.81,25.48Z"/><path class="cls-1" d="M17.31,32.7H2.79A1.68,1.68,0,0,1,1.12,31V2.82A1.68,1.68,0,0,1,2.79,1.13H20.42L25.84,6.6a.56.56,0,0,0,.79,0,.57.57,0,0,0,0-.8L21.05.17a.56.56,0,0,0-.4-.17H2.79A2.8,2.8,0,0,0,0,2.82V31a2.8,2.8,0,0,0,2.79,2.82H17.31a.56.56,0,0,0,.55-.56A.57.57,0,0,0,17.31,32.7Z"/><path class="cls-1" d="M17.31,27.07H12.84a.56.56,0,1,0,0,1.12h4.47a.56.56,0,0,0,0-1.12Z"/><path class="cls-1" d="M10.05,10.71a.56.56,0,0,0-.56-.56H6.14a.56.56,0,0,0-.56.56V14.1a.56.56,0,0,0,.56.56H9.49a.56.56,0,0,0,.56-.56ZM8.93,13.53H6.7V11.28H8.93Z"/><path class="cls-1" d="M6.14,28.19H9.49a.56.56,0,0,0,.56-.56V24.25a.57.57,0,0,0-.56-.57H6.14a.57.57,0,0,0-.56.57v3.38A.56.56,0,0,0,6.14,28.19Zm.56-3.38H8.93v2.26H6.7Z"/><path class="cls-1" d="M6.86,21.26a.56.56,0,0,0,.4.17h0a.52.52,0,0,0,.41-.24L10,17.79A.55.55,0,1,0,9,17.17L7.17,20l-.63-.64a.56.56,0,1,0-.79.79Z"/></g></g></svg>