<svg xmlns="http://www.w3.org/2000/svg" viewBox="0 0 31.67 31.45"><defs><style>.cls-1{fill:#e55039;}</style></defs><title>like-dislike</title><g id="Layer_2" data-name="Layer 2"><g id="Layer_1-2" data-name="Layer 1"><path class="cls-1" d="M29.61,3.14H19V2.09A2.11,2.11,0,0,0,16.92,0H2.11A2.11,2.11,0,0,0,0,2.09V13.61c0,5.75,5.55,5.75,7.4,5.75a.49.49,0,0,0,.53-.52.5.5,0,0,0-.53-.52,2.11,2.11,0,0,1-2.11-2.1V16a2.22,2.22,0,0,1,2.22-1.89H14.8v1H10.05a.5.5,0,0,0-.53.52,4.63,4.63,0,0,0,1.27,3.19,5,5,0,0,0-.22,1.52,5.3,5.3,0,0,0,3.18,4.82c0,.31-.16.94-1.59.94a2.6,2.6,0,0,0-2.64,2.62V31.4h1.05V28.79a1.56,1.56,0,0,1,1.48-1.57l2.59,1.25a3.45,3.45,0,0,0,.69.26V31.4h1.06V28.73a2.42,2.42,0,0,0,.69-.21l2.59-1.25a1.56,1.56,0,0,1,1.48,1.57v2.61H22.2V28.84a2.6,2.6,0,0,0-2.64-2.62c-1.43,0-1.58-.63-1.58-.94a5.23,5.23,0,0,0,3.17-5v-.37a4.09,4.09,0,0,0-.53-2.09h3.54a2.21,2.21,0,0,1,2.22,1.88,2.11,2.11,0,0,1-1.9,2.3h-.21a.53.53,0,1,0,0,1c1.85,0,7.4,0,7.4-5.76V5.23A2,2,0,0,0,29.61,3.14ZM7.51,13.08a3.3,3.3,0,0,0-3.28,2.83,3.31,3.31,0,0,0,.63,2.2c-2.59-.52-3.8-1.94-3.8-4.5V2.09a1,1,0,0,1,1-1H16.92a1.06,1.06,0,0,1,1.06,1V12a1.06,1.06,0,0,1-1.06,1Zm3.12,3.14h5.76A3.7,3.7,0,0,1,20,19.36H14.27A3.68,3.68,0,0,1,10.63,16.22Zm6.66,8.12a.5.5,0,0,0-.37.47v.31A1.84,1.84,0,0,0,18,26.9l-1.38.68a1.94,1.94,0,0,1-1.53,0l-1.32-.68a1.83,1.83,0,0,0,1.05-1.78v-.26a.5.5,0,0,0-.37-.47,4.25,4.25,0,0,1-2.8-4,3.35,3.35,0,0,1,0-.73,4.83,4.83,0,0,0,2.59.73h5.82A4.13,4.13,0,0,1,17.29,24.34Zm13.37-7.07c0,2.57-1.21,4-3.8,4.5a3.31,3.31,0,0,0,.63-2.2,3.25,3.25,0,0,0-3.28-2.82H19.93a4.73,4.73,0,0,0-3.54-1.57h-.53v-1h1.06A2.11,2.11,0,0,0,19,12V4.19H29.61a1,1,0,0,1,1.05,1v12Z"/><path class="cls-1" d="M12.16,5.76h-.53a.5.5,0,0,1-.53-.53V3.66a1.59,1.59,0,0,0-3.17,0V5.23a.5.5,0,0,1-.53.53.5.5,0,0,0-.53-.53H4.76a.5.5,0,0,0-.53.53v5.75a.5.5,0,0,0,.53.53H6.87a.5.5,0,0,0,.53-.53h4.76a1.55,1.55,0,0,0,1.59-1.57V7.33A1.55,1.55,0,0,0,12.16,5.76ZM6.34,11h-1V6.28h1Zm6.35-1.05a.5.5,0,0,1-.53.53H7.4V6.8A1.55,1.55,0,0,0,9,5.23V3.66a.5.5,0,0,1,.53-.52.5.5,0,0,1,.53.52V5.23A1.54,1.54,0,0,0,11.63,6.8h.53a.5.5,0,0,1,.53.53Z"/><path class="cls-1" d="M29.08,5.23H27a.5.5,0,0,0-.53.53H21.68a1.55,1.55,0,0,0-1.59,1.57V9.94a1.55,1.55,0,0,0,1.59,1.57h.52a.5.5,0,0,1,.53.53v1.57a1.59,1.59,0,0,0,3.18,0V12a.5.5,0,0,1,.52-.53A.5.5,0,0,0,27,12h2.12a.5.5,0,0,0,.53-.53V5.76A.5.5,0,0,0,29.08,5.23Zm-2.65,5.24A1.55,1.55,0,0,0,24.85,12v1.57a.53.53,0,0,1-1.06,0V12a1.55,1.55,0,0,0-1.59-1.57h-.52a.5.5,0,0,1-.53-.53V7.33a.5.5,0,0,1,.53-.53h4.75Zm2.12.52H27.49V6.28h1.06Z"/><rect class="cls-1" x="19.56" y="13.61" width="2.11" height="1.05"/><polygon class="cls-1" points="14.27 2.62 14.27 2.09 13.22 2.09 13.22 2.62 12.69 2.62 12.69 3.66 13.22 3.66 13.22 4.19 14.27 4.19 14.27 3.66 14.8 3.66 14.8 2.62 14.27 2.62"/></g></g></svg>