<svg xmlns="http://www.w3.org/2000/svg" viewBox="0 0 32.16 29.57"><defs><style>.cls-1{fill:#e55039;}</style></defs><title>ratings</title><g id="Layer_2" data-name="Layer 2"><g id="Layer_1-2" data-name="Layer 1"><path class="cls-1" d="M9.45,18a1,1,0,0,1,1.28.37l1.78,3a.63.63,0,0,0,.7.28.58.58,0,0,0,.48-.56V16.72a.61.61,0,0,0-.63-.57.6.6,0,0,0-.63.57v2.13l-.59-1a2.32,2.32,0,0,0-3-.85,2,2,0,0,0-1.16,2.3l1.15,4.38A7.65,7.65,0,0,0,10.3,26.5l2.25,2.83a.64.64,0,0,0,.51.24.7.7,0,0,0,.37-.11.56.56,0,0,0,.14-.81l-2.26-2.84A6.38,6.38,0,0,1,10.1,23.4L9,19A.86.86,0,0,1,9.45,18Z"/><path class="cls-1" d="M23.63,15.56a2.16,2.16,0,0,0-1,.24,2.15,2.15,0,0,0-2-1.27,2.3,2.3,0,0,0-1.08.27,2.15,2.15,0,0,0-1.94-1.15,2.3,2.3,0,0,0-.88.18V11.07a2.06,2.06,0,0,0-2.14-2,2.06,2.06,0,0,0-2.14,2v1a.61.61,0,0,0,.63.58.61.61,0,0,0,.63-.58v-1a.88.88,0,0,1,1.76,0v8.15a.63.63,0,0,0,1.26,0v-3.6a.88.88,0,0,1,1.76,0v3.6a.63.63,0,0,0,1.26,0V16.5a.88.88,0,0,1,1.76,0v2.72a.63.63,0,0,0,1.26,0v-1.7a.88.88,0,0,1,1.76,0V22.4a11.65,11.65,0,0,1-.64,3.82L23,28.82a.56.56,0,0,0,.41.72.64.64,0,0,0,.79-.38l.88-2.6a12.88,12.88,0,0,0,.7-4.16V17.52A2.06,2.06,0,0,0,23.63,15.56Z"/><path class="cls-1" d="M32.1,3.06a1,1,0,0,0-.85-.66l-1.92-.26L28.47.54A1.08,1.08,0,0,0,27.52,0h0a1.07,1.07,0,0,0-.95.54l-.86,1.61-1.92.25a1.05,1.05,0,0,0-.86.66.93.93,0,0,0,.27,1l1.39,1.25-.33,1.76a1,1,0,0,0,.43.95,1.13,1.13,0,0,0,.62.19,1.11,1.11,0,0,0,.49-.12l1.72-.83,1.72.83A1.1,1.1,0,0,0,30.35,8a.92.92,0,0,0,.42-.95l-.32-1.76,1.39-1.25A.91.91,0,0,0,32.1,3.06ZM29.49,4.55a.91.91,0,0,0-.3.86l.28,1.49L28,6.2a1.12,1.12,0,0,0-1,0l-1.46.7.28-1.49a.92.92,0,0,0-.31-.86L24.37,3.49,26,3.27a1,1,0,0,0,.8-.53l.73-1.35.73,1.35a1,1,0,0,0,.79.53l1.63.22Z"/><path class="cls-1" d="M20.66,3.06a1,1,0,0,0-.85-.66l-1.92-.26L17,.54a1.08,1.08,0,0,0-1-.54h0a1.07,1.07,0,0,0-.95.54l-.86,1.61-1.92.25a1.05,1.05,0,0,0-.86.66.93.93,0,0,0,.27,1l1.39,1.25-.33,1.76a1,1,0,0,0,.43.95,1.13,1.13,0,0,0,.62.19,1.11,1.11,0,0,0,.49-.12l1.72-.83,1.72.83A1.1,1.1,0,0,0,18.91,8a.92.92,0,0,0,.42-.95L19,5.31l1.4-1.25A.91.91,0,0,0,20.66,3.06ZM18.05,4.55a.91.91,0,0,0-.3.86L18,6.9l-1.46-.7a1.12,1.12,0,0,0-1,0l-1.46.7.28-1.49a.92.92,0,0,0-.31-.86L12.93,3.49l1.62-.22a1,1,0,0,0,.8-.53l.73-1.35.73,1.35a1,1,0,0,0,.79.53l1.63.22Z"/><path class="cls-1" d="M9.22,3.06a1,1,0,0,0-.85-.66L6.45,2.14,5.59.54a1.08,1.08,0,0,0-1-.54h0a1.07,1.07,0,0,0-.95.54L2.83,2.15.91,2.4a1.05,1.05,0,0,0-.86.66.93.93,0,0,0,.27,1L1.71,5.31,1.38,7.07A1,1,0,0,0,1.81,8a1.13,1.13,0,0,0,.62.19,1.11,1.11,0,0,0,.49-.12l1.72-.83,1.72.83A1.1,1.1,0,0,0,7.47,8a.92.92,0,0,0,.42-.95L7.56,5.31,9,4.06A.91.91,0,0,0,9.22,3.06ZM6.61,4.55a.91.91,0,0,0-.3.86L6.59,6.9,5.13,6.2a1.12,1.12,0,0,0-1,0l-1.46.7L3,5.41a.92.92,0,0,0-.31-.86L1.49,3.49l1.62-.22a1,1,0,0,0,.8-.53l.73-1.35.73,1.35a1,1,0,0,0,.79.53l1.63.22Z"/><path class="cls-1" d="M13.5,14a.64.64,0,0,0-.44-.17.66.66,0,0,0-.45.17.56.56,0,0,0,0,.82.71.71,0,0,0,.45.17.69.69,0,0,0,.44-.17.54.54,0,0,0,0-.82Z"/></g></g></svg>