<svg xmlns="http://www.w3.org/2000/svg" viewBox="0 0 25.54 24.47"><defs><style>.cls-1{fill:#e55039;}</style></defs><title>support</title><g id="Layer_2" data-name="Layer 2"><g id="Layer_1-2" data-name="Layer 1"><path class="cls-1" d="M16.42,17v-.45a2.82,2.82,0,0,0,.36-.33,6.61,6.61,0,0,0,1.68-3.68,3.27,3.27,0,0,0,2.09-1.25c.71-1,.77-2.41.18-4.2a.44.44,0,0,0-.19-.25l-.27-.18a6.54,6.54,0,0,0-1.56-4.42C17.41.75,15.41,0,12.77,0S8.13.75,6.83,2.19A6.55,6.55,0,0,0,5.26,6.61L5,6.79A.48.48,0,0,0,4.8,7c-.58,1.8-.52,3.21.18,4.2a3.24,3.24,0,0,0,2.1,1.26,6.54,6.54,0,0,0,1.68,3.69,2.82,2.82,0,0,0,.36.33V17C7.27,17.32-.12,19.06,0,24a.48.48,0,0,0,.48.48H25.05a.48.48,0,0,0,.49-.48C25.66,19.06,18.27,17.32,16.42,17ZM6.79,11.43a2.15,2.15,0,0,1-1-.75h0a3.68,3.68,0,0,1-.1-3.18L6,7.26a.5.5,0,0,0,.22-.45,5.66,5.66,0,0,1,1.31-4C8.66,1.6,10.42,1,12.77,1A6.67,6.67,0,0,1,18,2.83a5.72,5.72,0,0,1,1.32,4,.47.47,0,0,0,.21.45l.35.24a3.69,3.69,0,0,1-.09,3.18,2.15,2.15,0,0,1-1,.75A3.23,3.23,0,0,0,19.52,9a2.29,2.29,0,0,0-.77-1.35c-.21-4.83-3.6-5.37-5.06-5.37a7,7,0,0,0-.92.06,7.26,7.26,0,0,0-.93-.06c-1.45,0-4.83.53-5,5.37A2.21,2.21,0,0,0,6,9,3.21,3.21,0,0,0,6.79,11.43Zm11-4A9.94,9.94,0,0,1,12,6a.49.49,0,0,0-.63.07A5.61,5.61,0,0,1,7.8,7.41C8.06,4,10.13,3.25,11.87,3.25a4.47,4.47,0,0,1,.82.07.67.67,0,0,0,.2,0,4.54,4.54,0,0,1,.82-.07c1.73,0,3.81.76,4.05,4.21ZM8,11.52H8a.53.53,0,0,0-.12-.32,2.71,2.71,0,0,1-.89-2,1.31,1.31,0,0,1,.44-.82A7.24,7.24,0,0,0,11.77,7a10.86,10.86,0,0,0,5.37,1.45,6.7,6.7,0,0,0,1,0,1.28,1.28,0,0,1,.44.79,2.73,2.73,0,0,1-.89,2,.47.47,0,0,0-.12.32v.25l-2.81,1.51a1.39,1.39,0,1,0,.05,2,1.37,1.37,0,0,0,.38-1,.28.28,0,0,0,0-.13L17.4,13a5.38,5.38,0,0,1-1.29,2.56,4.33,4.33,0,0,1-3.21,1.19h-.24a4.33,4.33,0,0,1-3.2-1.19A6.13,6.13,0,0,1,8,11.52Zm6.25,2.77a.43.43,0,0,1-.43.43.43.43,0,0,1-.43-.43.43.43,0,0,1,.43-.43A.44.44,0,0,1,14.22,14.29Zm-1.94,9.19H1c.38-3.63,6.29-5.15,8.13-5.54v.86c0,1.1,1.34,1.94,3.17,2.08Zm-2.2-4.68h0V17.14a6,6,0,0,0,2.57.54h.24a6,6,0,0,0,2.56-.54V18.8c0,.46-1,1.12-2.68,1.12S10.08,19.26,10.08,18.8Zm3.17,4.69V20.87c1.84-.12,3.17-1,3.17-2.07V18c1.86.39,7.74,1.91,8.13,5.54Z"/></g></g></svg>