<svg xmlns="http://www.w3.org/2000/svg" viewBox="0 0 10.84 10.31"><defs><style>.cls-1{fill:#fff;}</style></defs><title>mailbox</title><g id="Layer_2" data-name="Layer 2"><g id="Layer_1-2" data-name="Layer 1"><g id="_Group_" data-name="&lt;Group&gt;"><path class="cls-1" d="M0,4.91V8.8A.28.28,0,0,0,.47,9L2.73,6.74a.28.28,0,0,0,0-.42L.44,4.68A.28.28,0,0,0,0,4.91Z"/></g><g id="_Group_2" data-name="&lt;Group&gt;"><path class="cls-1" d="M10.84,8.8V4.91a.27.27,0,0,0-.43-.23L8.14,6.32a.28.28,0,0,0,0,.42L10.37,9A.28.28,0,0,0,10.84,8.8Z"/></g><g id="_Group_3" data-name="&lt;Group&gt;"><path class="cls-1" d="M5.27,8,3.66,7a.27.27,0,0,0-.34,0L.52,9.84a.27.27,0,0,0,.19.47h9.42a.28.28,0,0,0,.2-.47L7.53,7a.29.29,0,0,0-.35,0L5.57,8A.27.27,0,0,1,5.27,8Z"/></g><path id="_Path_" data-name="&lt;Path&gt;" class="cls-1" d="M5.88,3.87l-.46-.46L5,3.87l-.77.77a.08.08,0,0,0,0,.08.14.14,0,0,0,0,.06.1.1,0,0,0,.08,0H5a.09.09,0,0,1,.1.1V7h0a.11.11,0,0,0,.11.1h.43a.1.1,0,0,0,.1-.1h0v-2a.1.1,0,0,1,.1-.1h.74a.08.08,0,0,0,.07,0s0,0,0-.06a.11.11,0,0,0,0-.08Z"/><path id="_Path_2" data-name="&lt;Path&gt;" class="cls-1" d="M10.26,3.12,5.75.1a.61.61,0,0,0-.66,0l-4.5,3a.6.6,0,0,0,0,1l1.94,1.3v-2A1.36,1.36,0,0,1,3.88,2.06H7A1.36,1.36,0,0,1,8.32,3.42v2l1.94-1.3A.6.6,0,0,0,10.26,3.12Z"/></g></g></svg>