<svg xmlns="http://www.w3.org/2000/svg" viewBox="0 0 35.54 28.12"><defs><style>.cls-1{fill:#e55039;}</style></defs><title>contact-box</title><g id="Layer_2" data-name="Layer 2"><g id="Layer_1-2" data-name="Layer 1"><path class="cls-1" d="M35,0H.59A.6.6,0,0,0,0,.6V24.53a.6.6,0,0,0,.59.6H26.06v2.39a.6.6,0,0,0,.59.6h4.74a.6.6,0,0,0,.6-.6V25.13h3a.6.6,0,0,0,.59-.6V.6A.6.6,0,0,0,35,0ZM1.18,1.2H29.62V4.79H1.18ZM30.8,26.92H27.25V12.56H30.8ZM27.68,11.37,29,9l1.35,2.39Zm6.67,12.56H32V12a.75.75,0,0,0-.09-.3h0L29.54,7.48a.63.63,0,0,0-.86-.18,1,1,0,0,0-.17.18l-2.37,4.19h0a.53.53,0,0,0-.09.3v12H1.18V6H34.35Zm0-19.14H30.8V1.2h3.55Z"/><path class="cls-1" d="M6.79,15.6h17.6a.56.56,0,0,0,.55-.56V9.49a.56.56,0,0,0-.55-.56H6.79a.55.55,0,0,0-.55.56V15A.55.55,0,0,0,6.79,15.6ZM7.34,10h16.5v4.45H7.34Z"/><path class="cls-1" d="M10.09,17.26H24.94v1.11H10.09Z"/><path class="cls-1" d="M6.79,20.6H24.94v1.11H6.79Z"/><path class="cls-1" d="M7.89,17.26H9v1.11H7.89Z"/><path class="cls-1" d="M32.64,3.37h1.1V4.49h-1.1Z"/></g></g></svg>