<svg xmlns="http://www.w3.org/2000/svg" viewBox="0 0 26.01 24.08"><defs><style>.cls-1{fill:#e55039;}</style></defs><title>feedback_1</title><g id="Layer_2" data-name="Layer 2"><g id="Layer_1-2" data-name="Layer 1"><path class="cls-1" d="M6,6.57H17.88a.55.55,0,0,0,0-1.1H6a.55.55,0,0,0,0,1.1Z"/><path class="cls-1" d="M12.46,12H6a.55.55,0,0,0,0,1.1h6.5a.55.55,0,0,0,0-1.1Z"/><path class="cls-1" d="M23.93,2.19h-.09A2.18,2.18,0,0,0,21.67,0H2.17A2.18,2.18,0,0,0,0,2.19V23.53A.54.54,0,0,0,.33,24a.52.52,0,0,0,.21,0,.51.51,0,0,0,.38-.16l5.26-5.31H21.67a2.18,2.18,0,0,0,2.17-2.19V7.34L25.4,5.77h0A2.11,2.11,0,0,0,26,4.28,2.09,2.09,0,0,0,23.93,2.19ZM22.76,16.42a1.09,1.09,0,0,1-1.09,1.09H6a.55.55,0,0,0-.38.16l-4.5,4.54v-20a1.1,1.1,0,0,1,1.09-1.1h19.5a1.1,1.1,0,0,1,1.09,1.1v.37a1.68,1.68,0,0,0-.29.24l-5.9,6H6A.55.55,0,0,0,6,9.85H15.7l-.52,2.63a.55.55,0,0,0,.15.49.52.52,0,0,0,.38.17l.11,0,2.71-.54a.56.56,0,0,0,.27-.15l4-4Zm-4.61-4.88-1.75.35.35-1.77,4.92-5,1.4,1.42ZM24.63,5l-.79.8-1.4-1.41.79-.8a1,1,0,0,1,1.69.7A1,1,0,0,1,24.63,5Z"/></g></g></svg>