<svg xmlns="http://www.w3.org/2000/svg" viewBox="0 0 182.89 184.74"><defs><style>.cls-1{fill:#e55039;}.cls-2,.cls-3{fill:#fff;}.cls-2{stroke:#fff;stroke-miterlimit:10;}</style></defs><title>blog</title><g id="Layer_2" data-name="Layer 2"><g id="widgets-section"><ellipse class="cls-1" cx="91.45" cy="92.37" rx="91.45" ry="92.37"/><path class="cls-2" d="M135.82,61.87H49.07a1.5,1.5,0,0,0-1.49,1.51v60.43a1.5,1.5,0,0,0,1.49,1.51h64.31v6a1.5,1.5,0,0,0,1.5,1.51h12a1.5,1.5,0,0,0,1.49-1.51v-6h7.48a1.5,1.5,0,0,0,1.49-1.51V63.38A1.49,1.49,0,0,0,135.82,61.87Zm-85.25,3h71.79V74H50.57Zm74.78,65h-9V93.59h9Zm-7.89-39.28,3.4-6,3.41,6Zm16.86,31.73h-6V92.08a1.45,1.45,0,0,0-.22-.73l0,0-6-10.57a1.54,1.54,0,0,0-2.15-.45,1.61,1.61,0,0,0-.45.45l-6,10.57,0,0a1.56,1.56,0,0,0-.22.73V122.3H50.57V77h83.75Zm0-48.35h-9V64.89h9Z"/><path class="cls-3" d="M64.71,101.25h44.44a1.4,1.4,0,0,0,1.39-1.4v-14a1.4,1.4,0,0,0-1.39-1.4H64.71a1.39,1.39,0,0,0-1.39,1.4v14A1.4,1.4,0,0,0,64.71,101.25Zm1.39-14h41.66V98.45H66.1Z"/><path class="cls-3" d="M73,105.46h37.5v2.8H73Z"/><path class="cls-3" d="M64.71,113.88h45.83v2.8H64.71Z"/><path class="cls-3" d="M67.49,105.46h2.77v2.8H67.49Z"/><path class="cls-3" d="M130,70.39h2.78v2.8H130Z"/></g></g></svg>