<svg xmlns="http://www.w3.org/2000/svg" viewBox="0 0 174 177"><defs><style>.cls-1{fill:#f91;}.cls-2{fill:#ed8800;}.cls-3{fill:#fff;}</style></defs><title>blogger</title><g id="Layer_2" data-name="Layer 2"><g id="platforms"><ellipse class="cls-1" cx="87" cy="88.5" rx="87" ry="88.5"/><path class="cls-2" d="M87,0A86.78,86.78,0,0,0,75.65.75C118.34,6.41,151.3,43.54,151.3,88.5s-33,82.09-75.65,87.75A86.78,86.78,0,0,0,87,177c48.05,0,87-39.62,87-88.5S135.05,0,87,0Z"/><path class="cls-3" d="M131.73,76.76H113.67V58.94A20.48,20.48,0,0,0,93.36,38.29H65.51A20.48,20.48,0,0,0,45.2,58.94v59.12a20.48,20.48,0,0,0,20.31,20.65h50.55a20.47,20.47,0,0,0,20.3-20.65V81.48A4.67,4.67,0,0,0,131.73,76.76ZM70,53.68H88.89a9.81,9.81,0,0,1,0,19.62H70a9.81,9.81,0,0,1,0-19.62Zm41.61,65.8H70a9.82,9.82,0,0,1,0-19.63h41.61a9.82,9.82,0,0,1,0,19.63Z"/></g></g></svg>