<svg xmlns="http://www.w3.org/2000/svg" viewBox="0 0 182.89 184.74"><defs><style>.cls-1{fill:#e55039;}.cls-2{fill:#fff;stroke:#fff;stroke-miterlimit:10;stroke-width:0.75px;}</style></defs><title>public-chatroom</title><g id="Layer_2" data-name="Layer 2"><g id="widgets-section"><ellipse class="cls-1" cx="91.45" cy="92.37" rx="91.45" ry="92.37"/><path class="cls-2" d="M91.29,67.68a1.92,1.92,0,1,0,1.92,1.92A1.92,1.92,0,0,0,91.29,67.68Z"/><path class="cls-2" d="M59.41,102.25a1.93,1.93,0,1,0-1.92-1.92A1.92,1.92,0,0,0,59.41,102.25Z"/><path class="cls-2" d="M106.65,48.48c-17.29,0-31.48,11.92-32.57,26.93-16.47.83-31.95,12.7-31.95,28.76a26.79,26.79,0,0,0,7.49,18.36,11.7,11.7,0,0,1-3.09,11,1.92,1.92,0,0,0,1.36,3.28,21.22,21.22,0,0,0,14.68-5.93A43.8,43.8,0,0,0,75.93,133c17.28,0,31.47-11.92,32.57-26.93A43.14,43.14,0,0,0,120,104a21.17,21.17,0,0,0,14.68,5.94,1.93,1.93,0,0,0,1.36-3.28,11.65,11.65,0,0,1-3.09-11,26.88,26.88,0,0,0,7.49-18.37C140.45,60.6,123.77,48.48,106.65,48.48ZM75.93,129.13a38.72,38.72,0,0,1-13.16-2.27,1.93,1.93,0,0,0-2.13.49A17.34,17.34,0,0,1,52,132.47,15.49,15.49,0,0,0,53.19,121a1.86,1.86,0,0,0-.46-.82,23,23,0,0,1-6.76-16c0-13.54,13.72-25,30-25,15.33,0,28.8,10.66,28.8,25C104.73,117.93,91.81,129.13,75.93,129.13Zm53.92-35.79a2,2,0,0,0-.47.81,15.53,15.53,0,0,0,1.17,11.43,17.3,17.3,0,0,1-8.61-5.11,1.92,1.92,0,0,0-2.13-.49,38,38,0,0,1-11.32,2.22A27.5,27.5,0,0,0,98.12,83h25a1.92,1.92,0,0,0,0-3.84H92.22a35.8,35.8,0,0,0-14.29-3.78c1.1-12.9,13.56-23.1,28.72-23.1,16.24,0,30,11.43,30,25A23.07,23.07,0,0,1,129.85,93.34Z"/><path class="cls-2" d="M91.29,98.4H67.09a1.93,1.93,0,0,0,0,3.85h24.2a1.93,1.93,0,0,0,0-3.85Z"/><path class="cls-2" d="M91.29,109.93H59.41a1.92,1.92,0,1,0,0,3.84H91.29a1.92,1.92,0,0,0,0-3.84Z"/><path class="cls-2" d="M123.17,67.68H99a1.92,1.92,0,0,0,0,3.84h24.2a1.92,1.92,0,1,0,0-3.84Z"/></g></g></svg>