<svg xmlns="http://www.w3.org/2000/svg" viewBox="0 0 32 30.34"><defs><style>.cls-1{fill:#bf3a2c;}</style></defs><title>check</title><g id="Layer_2" data-name="Layer 2"><g id="easy-steps"><g id="check"><path class="cls-1" d="M29.31,12.61A1.29,1.29,0,0,0,28,13.89v1.29a12.46,12.46,0,0,1-3.72,8.91,12.71,12.71,0,0,1-9,3.69h0A12.66,12.66,0,0,1,2.59,15.16,12.47,12.47,0,0,1,6.31,6.25a12.71,12.71,0,0,1,9-3.69h0a12.56,12.56,0,0,1,5.16,1.1A1.31,1.31,0,0,0,22.18,3a1.29,1.29,0,0,0-.65-1.7A15.29,15.29,0,0,0,15.31,0h0A15.28,15.28,0,0,0,4.49,4.44a15.08,15.08,0,0,0,0,21.45,15.25,15.25,0,0,0,10.82,4.45h0a15.27,15.27,0,0,0,10.81-4.43A15,15,0,0,0,30.6,15.18V13.89A1.28,1.28,0,0,0,29.31,12.61Z"/><path class="cls-1" d="M31.62,1.77a1.3,1.3,0,0,0-1.83,0L15.3,16.14,12,12.88a1.29,1.29,0,1,0-1.83,1.82l4.21,4.16a1.28,1.28,0,0,0,1.82,0L31.62,3.59A1.27,1.27,0,0,0,31.62,1.77Z"/></g></g></g></svg>