<svg xmlns="http://www.w3.org/2000/svg" viewBox="0 0 182.89 184.74"><defs><style>.cls-1{fill:#e55039;}.cls-2{fill:#fff;stroke:#fff;stroke-miterlimit:10;stroke-width:2px;}</style></defs><title>contact</title><g id="Layer_2" data-name="Layer 2"><g id="widgets-section"><ellipse class="cls-1" cx="91.45" cy="92.37" rx="91.45" ry="92.37"/><path class="cls-2" d="M129,65.8h-75a3.38,3.38,0,0,0-3.37,3.4v46.34a3.38,3.38,0,0,0,3.37,3.4H129a3.38,3.38,0,0,0,3.37-3.4V69.2A3.38,3.38,0,0,0,129,65.8Zm-75,2.67H129a.72.72,0,0,1,.69.52L91.45,93.1,53.23,69A.72.72,0,0,1,53.92,68.47ZM53.2,72,80.68,89.38l-27.48,22Zm76.5,43.48a.73.73,0,0,1-.73.73h-75a.73.73,0,0,1-.72-.73v-.71L83.07,91l7.67,4.85a1.29,1.29,0,0,0,1.41,0L99.83,91l29.87,23.85Zm0-4.12-27.56-22L129.7,72.2Z"/></g></g></svg>