<svg xmlns="http://www.w3.org/2000/svg" viewBox="0 0 182.89 184.74"><defs><style>.cls-1{fill:#e55039;}.cls-2{fill:#fff;}</style></defs><title>customer-chat-support</title><g id="Layer_2" data-name="Layer 2"><g id="widgets-section"><ellipse class="cls-1" cx="91.45" cy="92.37" rx="91.45" ry="92.37"/><path class="cls-2" d="M103.58,108.09v-1.48a15.51,15.51,0,0,0,1.2-1.09,22,22,0,0,0,5.56-12.24,10.81,10.81,0,0,0,7-4.14c2.33-3.3,2.54-8,.59-14a1.6,1.6,0,0,0-.64-.83l-.88-.6a21.73,21.73,0,0,0-5.21-14.66c-4.32-4.86-11-7.32-19.73-7.35S76,54.21,71.7,59a21.77,21.77,0,0,0-5.2,14.66l-.89.59a1.67,1.67,0,0,0-.64.84c-1.94,6-1.73,10.68.6,14a10.83,10.83,0,0,0,7,4.19,22,22,0,0,0,5.57,12.26c.38.38.78.74,1.2,1.09v1.48c-6.15,1.18-30.7,7-30.28,23.33a1.6,1.6,0,0,0,1.6,1.61h81.63a1.61,1.61,0,0,0,1.61-1.61C134.28,115,109.73,109.27,103.58,108.09Zm-32-18.41a7,7,0,0,1-3.4-2.49l.08,0c-1.61-2.35-1.75-5.9-.32-10.59l1.17-.78a1.64,1.64,0,0,0,.71-1.5,19,19,0,0,1,4.36-13.21C77.8,57,83.63,55,91.44,54.93s13.63,2.09,17.33,6.2a19,19,0,0,1,4.36,13.21,1.64,1.64,0,0,0,.71,1.5l1.17.78c1.43,4.68,1.34,8.24-.32,10.59a7,7,0,0,1-3.42,2.49,10.72,10.72,0,0,0,2.62-8,7.53,7.53,0,0,0-2.59-4.5c-.69-16.06-12-17.86-16.8-17.86a20.91,20.91,0,0,0-3.06.23,21,21,0,0,0-3.07-.23c-4.82,0-16.06,1.77-16.8,17.86A7.59,7.59,0,0,0,69,81.65,10.71,10.71,0,0,0,71.57,89.68Zm36.54-13.17a33,33,0,0,1-19.19-4.82,1.63,1.63,0,0,0-2.09.21c-3.21,3.46-9.07,4.26-11.9,4.44C75.8,65,82.67,62.51,88.45,62.51a15.86,15.86,0,0,1,2.75.22,1.38,1.38,0,0,0,.64,0,15.86,15.86,0,0,1,2.75-.22c5.73,0,12.63,2.54,13.44,14ZM75.49,90h.07a1.57,1.57,0,0,0-.41-1.07c-2.2-2.52-3.21-4.82-2.94-6.72a4.31,4.31,0,0,1,1.47-2.71c2.12,0,9.63-.4,14.45-4.56A36.25,36.25,0,0,0,106,79.76a20.72,20.72,0,0,0,3.3-.18,4.26,4.26,0,0,1,1.45,2.63c.27,1.87-.74,4.2-2.94,6.72a1.61,1.61,0,0,0-.4,1.07v.84l-9.35,5a4.62,4.62,0,1,0,1.45,3.35v-.43l7.37-4a17.58,17.58,0,0,1-4.31,8.48,14.29,14.29,0,0,1-10.64,4h-.81a14.36,14.36,0,0,1-10.63-4C75.38,98.26,75.49,90.07,75.49,90ZM96.26,99.2a1.43,1.43,0,1,1-1.43-1.43A1.43,1.43,0,0,1,96.26,99.2Zm-6.43,30.52H52.29c1.26-12.06,20.87-17.11,27-18.41v2.88c0,3.64,4.43,6.42,10.53,6.89Zm-7.32-15.53v-5.54a19.44,19.44,0,0,0,8.53,1.8h.8a19.47,19.47,0,0,0,8.53-1.8v5.54c0,1.52-3.49,3.72-8.93,3.72S82.51,115.71,82.51,114.19ZM93,129.77v-8.71c6.11-.42,10.54-3.21,10.54-6.89v-2.81c6.18,1.29,25.69,6.33,27,18.41Z"/></g></g></svg>