<svg xmlns="http://www.w3.org/2000/svg" viewBox="0 0 174 177"><defs><style>.cls-1{fill:#1886c9;}</style></defs><title>drupal</title><g id="Layer_2" data-name="Layer 2"><g id="platforms"><path id="Drupicon" class="cls-1" d="M112,55.31C106.58,51.63,99,47.94,93.89,44.25,90.63,42,86.64,37.61,83,33.19c-.72,7.37-1.08,8.85-3.62,11.06-5.44,4.43-10.88,7-15.23,9.59-5.8,2.95-24.65,14.38-24.65,42A47.73,47.73,0,0,0,87,143.81c25.38,0,47.13-18.8,47.13-46.83C134.49,68.59,115.64,57.53,112,55.31Zm-1.08,78.55c-.37.37-5.44,4-10.88,4.42S86.64,139,82.29,135a1.68,1.68,0,0,1,0-2.21,2.73,2.73,0,0,1,1.45-.74c.36,0,.36,0,.72.37,2.18,1.85,5.08,3,12,3s11.23-1.84,13.41-3.69c1.09-.73,1.45,0,1.45.37C111.65,132.38,111.65,133.12,110.93,133.86ZM92.8,124.27a16.34,16.34,0,0,1,4.71-3.69,9.78,9.78,0,0,1,4.35-.74c1.82,0,3.63,0,4.72,1.11,1.08.74,1.81,3,2.53,3.69s0,1.84-.72,2.21-.73.37-1.45-1.11-1.45-2.95-5.08-2.95-4.71,1.11-6.52,2.95c-1.81,1.48-2.54,2.22-2.9,1.11C91.35,126.11,91.71,125,92.8,124.27Zm26.46,1.11c-3.62-.37-9.78-10.7-14.5-11.07-6.16-.37-18.48,11.07-29,11.07-6.16,0-8.7-2.22-10.87-3.69-3.26-2.21-7.25-6.27-7.25-11.06,0-8.49,8.34-14.75,18.12-14.75,12.33,0,22.84,11.06,29,11.06,5.08,0,13-11.06,18.13-11.06s7.25,7.74,7.25,11.06-.36,9.22-2.9,13.27C125.06,123.9,122.16,125.74,119.26,125.38Z"/><path class="cls-1" d="M87,0C38.79,0,0,39.46,0,88.5S38.79,177,87,177s87-39.46,87-88.5S135.21,0,87,0Zm0,158.56c-38.06,0-68.87-31.34-68.87-70.06S48.94,18.44,87,18.44s68.88,31.34,68.88,70.06S125.06,158.56,87,158.56Z"/></g></g></svg>