<svg xmlns="http://www.w3.org/2000/svg" viewBox="0 0 175.51 175.51"><defs><style>.cls-1{fill:#f9e4e4;}.cls-2{fill:#5161bc;}.cls-3{fill:#a4addc;}.cls-4{fill:#fefefe;}.cls-5{fill:#606062;}</style></defs><title>google-sites</title><g id="Layer_2" data-name="Layer 2"><g id="platforms"><circle class="cls-1" cx="87.76" cy="87.76" r="87.76"/><path class="cls-2" d="M93.29,47.76H71.61a5.1,5.1,0,0,0-5.09,5.09v48.37a5.1,5.1,0,0,0,5.09,5.09h32.3a5.1,5.1,0,0,0,5.09-5.09V63.79Z"/><path class="cls-3" d="M109,63.88H98.38a5.11,5.11,0,0,1-5.1-5.1v-11h0l15.71,16Z"/><polygon class="cls-4" points="77 76.81 98.55 76.81 98.55 83.66 77 83.66 77 76.81"/><polygon class="cls-4" points="77 86.21 89.02 86.21 89.02 95.61 77 95.61 77 86.21"/><polygon class="cls-4" points="92.12 86.21 98.55 86.21 98.55 95.61 92.12 95.61 92.12 86.21"/><path class="cls-5" d="M43.12,119.79v-2h5.24v4.81a6.41,6.41,0,0,1-2.22,1.31,7.91,7.91,0,0,1-2.93.57,6.48,6.48,0,0,1-3.3-.8,5.07,5.07,0,0,1-2.11-2.28,7.36,7.36,0,0,1-.71-3.21,7.06,7.06,0,0,1,.79-3.36,5.4,5.4,0,0,1,2.31-2.25,6.2,6.2,0,0,1,2.88-.6,5.8,5.8,0,0,1,3.52.94,4.34,4.34,0,0,1,1.62,2.61l-2.43.46a2.6,2.6,0,0,0-1-1.41,2.88,2.88,0,0,0-1.75-.51,3.27,3.27,0,0,0-2.53,1,4.28,4.28,0,0,0-.94,3,4.74,4.74,0,0,0,.95,3.22,3.18,3.18,0,0,0,2.5,1.08,4.16,4.16,0,0,0,1.53-.3,5.52,5.52,0,0,0,1.32-.73v-1.53Zm6.94-.05a4.82,4.82,0,0,1,.56-2.23,3.94,3.94,0,0,1,1.61-1.65,4.79,4.79,0,0,1,2.33-.57,4.33,4.33,0,0,1,3.24,1.29,4.43,4.43,0,0,1,1.27,3.26,4.51,4.51,0,0,1-1.28,3.29,4.33,4.33,0,0,1-3.22,1.31,5,5,0,0,1-2.29-.55,3.75,3.75,0,0,1-1.66-1.59A5.41,5.41,0,0,1,50.06,119.74Zm2.37.12a2.92,2.92,0,0,0,.62,2,2,2,0,0,0,1.52.69,1.93,1.93,0,0,0,1.51-.69,2.93,2.93,0,0,0,.62-2,2.88,2.88,0,0,0-.62-2,1.93,1.93,0,0,0-1.51-.69,2,2,0,0,0-1.52.69A2.91,2.91,0,0,0,52.43,119.86Zm7.92-.12a4.82,4.82,0,0,1,.56-2.23,3.94,3.94,0,0,1,1.61-1.65,4.77,4.77,0,0,1,2.32-.57,4.34,4.34,0,0,1,3.25,1.29,4.43,4.43,0,0,1,1.27,3.26,4.51,4.51,0,0,1-1.28,3.29,4.31,4.31,0,0,1-3.22,1.31,5,5,0,0,1-2.29-.55,3.75,3.75,0,0,1-1.66-1.59A5.41,5.41,0,0,1,60.35,119.74Zm2.37.12a2.92,2.92,0,0,0,.62,2,2,2,0,0,0,1.52.69,1.94,1.94,0,0,0,1.51-.69,2.93,2.93,0,0,0,.61-2,2.88,2.88,0,0,0-.61-2,1.94,1.94,0,0,0-1.51-.69,2,2,0,0,0-1.52.69A2.91,2.91,0,0,0,62.72,119.86ZM71,124.77l2.64.32a1,1,0,0,0,.3.65,1.71,1.71,0,0,0,1,.25,2.72,2.72,0,0,0,1.36-.27,1.12,1.12,0,0,0,.46-.59,3.49,3.49,0,0,0,.11-1.06V122.8a3.18,3.18,0,0,1-2.63,1.42,3.23,3.23,0,0,1-2.79-1.49,5,5,0,0,1-.81-2.92,4.83,4.83,0,0,1,1.06-3.36,3.45,3.45,0,0,1,2.64-1.16A3.19,3.19,0,0,1,77,116.71v-1.24h2.16v7.84a7.8,7.8,0,0,1-.26,2.32,3,3,0,0,1-.71,1.2,3.13,3.13,0,0,1-1.24.68,6.26,6.26,0,0,1-1.94.25,5,5,0,0,1-3.15-.77,2.4,2.4,0,0,1-.93-1.94C71,125,71,124.89,71,124.77Zm2.07-5.1a3.18,3.18,0,0,0,.53,2,1.68,1.68,0,0,0,1.33.65,1.82,1.82,0,0,0,1.43-.67,2.84,2.84,0,0,0,.58-2,3,3,0,0,0-.56-2,1.76,1.76,0,0,0-1.41-.66,1.72,1.72,0,0,0-1.37.65A3,3,0,0,0,73,119.67Zm8.43,4.55V112.16h2.31v12.06Zm9.74-2.76,2.3.38a3.71,3.71,0,0,1-1.4,1.93,4.06,4.06,0,0,1-2.39.67A3.93,3.93,0,0,1,86.33,123a5.06,5.06,0,0,1-.86-3,4.87,4.87,0,0,1,1.13-3.41,3.75,3.75,0,0,1,2.87-1.23,3.89,3.89,0,0,1,3.08,1.29,5.79,5.79,0,0,1,1.07,4H87.85a2.34,2.34,0,0,0,.55,1.6,1.75,1.75,0,0,0,1.33.57,1.46,1.46,0,0,0,.91-.29A1.94,1.94,0,0,0,91.2,121.46Zm.13-2.34a2.19,2.19,0,0,0-.52-1.53,1.57,1.57,0,0,0-1.19-.53,1.6,1.6,0,0,0-1.25.56,2.09,2.09,0,0,0-.48,1.5Zm8.24,1.19,2.37-.23a2.94,2.94,0,0,0,.87,1.75,2.61,2.61,0,0,0,1.76.55,2.68,2.68,0,0,0,1.76-.49,1.49,1.49,0,0,0,.6-1.16,1.12,1.12,0,0,0-.25-.74,2,2,0,0,0-.87-.52c-.29-.1-.93-.27-1.94-.53a6.61,6.61,0,0,1-2.74-1.19,3.17,3.17,0,0,1-1.11-2.44,3.21,3.21,0,0,1,.52-1.73,3.3,3.3,0,0,1,1.51-1.22,6,6,0,0,1,2.36-.42,5,5,0,0,1,3.4,1,3.58,3.58,0,0,1,1.21,2.69l-2.44.08a2.11,2.11,0,0,0-.67-1.34,2.43,2.43,0,0,0-1.53-.41,2.69,2.69,0,0,0-1.65.44.9.9,0,0,0-.38.75,1,1,0,0,0,.36.74,6.69,6.69,0,0,0,2.23.81,11.68,11.68,0,0,1,2.62.86,3.36,3.36,0,0,1,1.33,1.23,3.81,3.81,0,0,1-.09,3.86,3.5,3.5,0,0,1-1.63,1.35,7,7,0,0,1-2.63.44,5.2,5.2,0,0,1-3.51-1.06A4.57,4.57,0,0,1,99.57,120.31Zm11.86-6v-2.14h2.3v2.14Zm0,9.92v-8.75h2.3v8.75Zm8.67-8.75v1.84h-1.59v3.54a8.62,8.62,0,0,0,0,1.26.5.5,0,0,0,.21.29.62.62,0,0,0,.39.12,2.85,2.85,0,0,0,.93-.22l.19,1.79a4.54,4.54,0,0,1-1.82.35,2.87,2.87,0,0,1-1.12-.21,1.57,1.57,0,0,1-.73-.55,2.06,2.06,0,0,1-.33-.91,11.22,11.22,0,0,1-.07-1.63v-3.83h-1.07v-1.84h1.07v-1.73l2.3-1.36v3.09Zm6.67,6,2.31.38a3.82,3.82,0,0,1-1.4,1.93,4.09,4.09,0,0,1-2.4.67,3.9,3.9,0,0,1-3.37-1.49,5,5,0,0,1-.87-3,4.83,4.83,0,0,1,1.14-3.41,3.72,3.72,0,0,1,2.86-1.23,3.88,3.88,0,0,1,3.08,1.29,5.69,5.69,0,0,1,1.07,4h-5.78a2.35,2.35,0,0,0,.57,1.6,1.72,1.72,0,0,0,1.32.57,1.44,1.44,0,0,0,.91-.29A1.87,1.87,0,0,0,126.77,121.46Zm.13-2.34a2.23,2.23,0,0,0-.51-1.53,1.59,1.59,0,0,0-1.2-.53,1.61,1.61,0,0,0-1.25.56,2.09,2.09,0,0,0-.48,1.5Zm3.36,2.64,2.32-.35a1.66,1.66,0,0,0,.61,1,2,2,0,0,0,1.26.35,2.28,2.28,0,0,0,1.35-.33.74.74,0,0,0,.3-.62.6.6,0,0,0-.17-.44,1.89,1.89,0,0,0-.77-.3,12.29,12.29,0,0,1-3.54-1.13,2.24,2.24,0,0,1-1-2,2.41,2.41,0,0,1,.9-1.91,4.14,4.14,0,0,1,2.78-.78,4.83,4.83,0,0,1,2.66.59,3.06,3.06,0,0,1,1.21,1.74L136,118a1.35,1.35,0,0,0-.53-.79,2,2,0,0,0-1.12-.27,2.58,2.58,0,0,0-1.32.25.55.55,0,0,0-.26.47.48.48,0,0,0,.23.42,8.72,8.72,0,0,0,2.16.66,6.39,6.39,0,0,1,2.59,1,2.11,2.11,0,0,1,.73,1.72,2.6,2.6,0,0,1-1,2.06,4.41,4.41,0,0,1-3,.87,4.92,4.92,0,0,1-2.83-.72A3.31,3.31,0,0,1,130.26,121.76Z"/></g></g></svg>