<svg xmlns="http://www.w3.org/2000/svg" viewBox="0 0 193.85 69.55">
    <defs>
        <style>.cls-1{fill:#fff;}</style>
    </defs>
    <title>logo</title>
    <g id="Layer_2" data-name="Layer 2">
        <g id="Main">
            <g id="_Group_" data-name="&lt;Group&gt;">
                <path id="_Compound_Path_" data-name="&lt;Compound Path&gt;" class="cls-1"
                      d="M17.61,55.48A6.45,6.45,0,0,0,20.21,50c0-4.6-3.5-7.35-9.37-7.35H1.16A1.16,1.16,0,0,0,0,43.82V68.29a1.16,1.16,0,0,0,1.16,1.16H11.54c8.27,0,10-4.11,10-7.56A6.62,6.62,0,0,0,17.61,55.48ZM3,45.64h8c4.13,0,6.22,1.47,6.22,4.37S15.11,54.37,11,54.37H3Zm8.66,20.83H3V57.35h8.66c6.07,0,6.84,2.43,6.84,4.54S17.75,66.47,11.68,66.47Z"/>
                <path id="_Compound_Path_2" data-name="&lt;Compound Path&gt;" class="cls-1"
                      d="M36.72,42.56C29.87,42.56,26,46.75,26,54.06V68.29a1.16,1.16,0,0,0,1.16,1.16h.7A1.16,1.16,0,0,0,29,68.29V61.37H44.47v6.92a1.16,1.16,0,0,0,1.16,1.16h.7a1.16,1.16,0,0,0,1.16-1.16V54.06C47.49,46.75,43.56,42.56,36.72,42.56Zm7.75,15.83H29V54c0-5.61,2.61-8.45,7.76-8.45s7.75,2.84,7.75,8.45Z"/>
                <path id="_Compound_Path_3" data-name="&lt;Compound Path&gt;" class="cls-1"
                      d="M88.64,42.66h-.7a1.16,1.16,0,0,0-1.16,1.16v15.1c0,5.15-2.19,7.65-6.7,7.65s-6.64-2.43-6.64-7.65V43.82a1.16,1.16,0,0,0-1.16-1.16h-.7a1.16,1.16,0,0,0-1.16,1.16v15.1c0,5.15-2.17,7.65-6.63,7.65s-6.71-2.43-6.71-7.65V43.82a1.16,1.16,0,0,0-1.16-1.16h-.69a1.16,1.16,0,0,0-1.16,1.16V59c0,6.73,3.54,10.59,9.72,10.59,3.78,0,6.58-1.47,8.14-4.27,1.57,2.8,4.37,4.27,8.15,4.27,6.18,0,9.72-3.86,9.72-10.59V43.82A1.16,1.16,0,0,0,88.64,42.66ZM72.28,43.82ZM77.55,68.1Z"/>
                <path id="_Path_" data-name="&lt;Path&gt;" class="cls-1"
                      d="M106.63,55.08l10.16-10.45a1.16,1.16,0,0,0-.83-2H115a1.18,1.18,0,0,0-.83.35L99.61,58V43.82a1.16,1.16,0,0,0-1.16-1.16h-.7a1.16,1.16,0,0,0-1.16,1.16V68.29a1.16,1.16,0,0,0,1.16,1.16h.7a1.16,1.16,0,0,0,1.16-1.16v-6l4.88-5L115,69.06a1.2,1.2,0,0,0,.87.39h.94a1.16,1.16,0,0,0,.87-1.93Z"/>
                <path id="_Compound_Path_4" data-name="&lt;Compound Path&gt;" class="cls-1"
                      d="M138.44,55.48A6.47,6.47,0,0,0,141,50c0-4.6-3.51-7.35-9.38-7.35H122a1.16,1.16,0,0,0-1.16,1.16V68.29A1.16,1.16,0,0,0,122,69.45h10.38c8.27,0,10-4.11,10-7.56A6.64,6.64,0,0,0,138.44,55.48Zm-14.6-9.84h8c4.13,0,6.22,1.47,6.22,4.37s-2.09,4.36-6.22,4.36h-8Zm8.66,20.83h-8.66V57.35h8.66c6.07,0,6.85,2.43,6.85,4.54S138.57,66.47,132.5,66.47Z"/>
                <path id="_Compound_Path_5" data-name="&lt;Compound Path&gt;" class="cls-1"
                      d="M158.11,42.56a13.5,13.5,0,1,0,13.7,13.5A13.3,13.3,0,0,0,158.11,42.56Zm0,24a10.52,10.52,0,1,1,10.68-10.51A10.37,10.37,0,0,1,158.11,66.57Z"/>
                <path id="_Path_2" data-name="&lt;Path&gt;" class="cls-1"
                      d="M193.61,67.59l-9-12,8.33-11.11a1.17,1.17,0,0,0,.1-1.22,1.15,1.15,0,0,0-1-.64h-.84a1.17,1.17,0,0,0-.93.47l-7.5,10-20.95-28a9.32,9.32,0,0,0-13.46-12.61h0a9.17,9.17,0,0,0,.57-3.2,9.33,9.33,0,0,0-18.23-2.8,9.36,9.36,0,0,0-.42,2.55,29.35,29.35,0,0,1,16.3,5.33l.56.4c6.75,4.71,12.56,12.54,12.56,12.54h0l21.18,28.29-9,12a1.16,1.16,0,0,0,.93,1.86h.84a1.17,1.17,0,0,0,.92-.46l8.2-10.9,8.2,10.9a1.19,1.19,0,0,0,.92.46h.88a1.16,1.16,0,0,0,.92-1.86Z"/>
                <path id="_Compound_Path_6" data-name="&lt;Compound Path&gt;" class="cls-1"
                      d="M139.87,19.52A5.09,5.09,0,1,0,145,24.61,5.09,5.09,0,0,0,139.87,19.52Zm1.72,5.09a1.71,1.71,0,1,1,1.71-1.71A1.72,1.72,0,0,1,141.59,24.61Z"/>
                <path id="_Path_3" data-name="&lt;Path&gt;" class="cls-1"
                      d="M129.64,38.41l.52,0V19.77l-.52,0a9.32,9.32,0,0,0,0,18.62Z"/>
                <polygon id="_Path_4" data-name="&lt;Path&gt;" class="cls-1"
                         points="130.16 18.41 130.16 9.07 129.63 9.07 120.82 9.07 129.63 17.89 130.16 18.41"/>
            </g>
        </g>
    </g>
</svg>