<svg xmlns="http://www.w3.org/2000/svg" xmlns:xlink="http://www.w3.org/1999/xlink" viewBox="0 0 520.65 469.22"><defs><style>.cls-1{fill:none;}.cls-2{fill:#fff4f3;}.cls-3{fill:#fff;}.cls-4{fill:#84261f;}.cls-5{fill:#bf3a2c;}.cls-6{fill:#fc8;}.cls-7{fill:#214a81;}.cls-8{fill:#f9b9b2;}.cls-9{fill:#ce4132;}.cls-10{fill:#ffd23f;}.cls-11{clip-path:url(#clip-path);}</style><clipPath id="clip-path"><rect class="cls-1" x="27.41" y="275.49" width="493.24" height="89.15"/></clipPath></defs><title>rocket-easy-steps</title><g id="Layer_2" data-name="Layer 2"><g id="easy-steps"><path class="cls-2" d="M520.65,203.84c-18.43-25.7-44-47.83-73.61-64.28C400,113.45,344.84,97,288.73,97.88c-52.53.85-108.12,23.36-136.67,70.06-23.17,37.9-30.25,73.17-67.77,101.48C58.37,289,16.74,295.46,3.8,322.84.18,330.52-.5,338.7.3,347H520.65Z"/><path class="cls-3" d="M188.91,177.11a7.07,7.07,0,0,1,6.84-1.39,10,10,0,0,1,9.84-6.51,10.73,10.73,0,0,1,11.27,9.58c7.34-2.08,8.76,4,8.76,4.23H186.15A7.58,7.58,0,0,1,188.91,177.11Z"/><path class="cls-3" d="M387.65,194.68A11,11,0,0,1,392.9,196a17.48,17.48,0,0,1,28.83-.94,13.27,13.27,0,0,1,25.66,2.17,11.26,11.26,0,0,1,1.66-.14,10.77,10.77,0,0,1,9.48,5.49h-81.3A10.62,10.62,0,0,1,387.65,194.68Z"/><ellipse class="cls-4" cx="335.68" cy="5.24" rx="5.62" ry="5.24"/><path class="cls-4" d="M212.2,114.83a3.77,3.77,0,1,1-3.76-3.51A3.64,3.64,0,0,1,212.2,114.83Z"/><path class="cls-5" d="M362.44,96.38l-2.26-1.13a.8.8,0,0,1-.33-.3l-1.2-2.11a.84.84,0,0,0-1.43,0L356,95a.8.8,0,0,1-.33.3l-2.25,1.13a.74.74,0,0,0,0,1.34l2.25,1.12a.82.82,0,0,1,.33.31l1.21,2.11a.84.84,0,0,0,1.43,0l1.2-2.11a.82.82,0,0,1,.33-.31l2.26-1.12A.74.74,0,0,0,362.44,96.38Z"/><path class="cls-4" d="M229.75,26l-2.84-1.42a1.06,1.06,0,0,1-.42-.39L225,21.57a1.06,1.06,0,0,0-1.8,0l-1.52,2.65a1,1,0,0,1-.42.39L218.4,26a.92.92,0,0,0,0,1.68l2.83,1.42a.94.94,0,0,1,.42.39l1.52,2.65a1.06,1.06,0,0,0,1.8,0l1.52-2.65a1,1,0,0,1,.42-.39l2.84-1.42A.92.92,0,0,0,229.75,26Z"/><path class="cls-4" d="M426.62,79.25l-3.43-1.71a1.31,1.31,0,0,1-.51-.48l-1.84-3.2a1.27,1.27,0,0,0-2.17,0l-1.84,3.2a1.24,1.24,0,0,1-.51.48l-3.43,1.71a1.12,1.12,0,0,0,0,2L416.32,83a1.24,1.24,0,0,1,.51.48l1.84,3.2a1.27,1.27,0,0,0,2.17,0l1.84-3.2a1.31,1.31,0,0,1,.51-.48l3.43-1.71A1.12,1.12,0,0,0,426.62,79.25Z"/><path class="cls-4" d="M159.13,66.91,156,65.34a1.07,1.07,0,0,1-.46-.43L153.84,62a1.16,1.16,0,0,0-2,0l-1.68,2.93a1.15,1.15,0,0,1-.47.43l-3.14,1.57a1,1,0,0,0,0,1.86l3.14,1.58a1.15,1.15,0,0,1,.47.43l1.68,2.93a1.16,1.16,0,0,0,2,0l1.69-2.93a1.07,1.07,0,0,1,.46-.43l3.14-1.58A1,1,0,0,0,159.13,66.91Z"/><path class="cls-5" d="M369,48.62l-2.3-1.15a.81.81,0,0,1-.34-.32L365.08,45a.85.85,0,0,0-1.46,0l-1.23,2.14a.75.75,0,0,1-.34.32l-2.3,1.15a.75.75,0,0,0,0,1.36l2.3,1.15a.88.88,0,0,1,.34.32l1.23,2.15a.86.86,0,0,0,1.46,0l1.23-2.15a1,1,0,0,1,.34-.32L369,50A.75.75,0,0,0,369,48.62Z"/><rect class="cls-3" x="272.22" y="203.68" width="32.75" height="143.61"/><path class="cls-6" d="M301.1,211.88c0-6.17-5.36-11.18-12-11.18s-12,5-12,11.18c0,0-1.55,26.44,12,40.52C302.65,238.32,301.1,211.88,301.1,211.88Z"/><path class="cls-5" d="M247.31,151.33s-44.84,20.28-27.07,80.08c0,0,9.49-30.06,39.91-37.84Z"/><path class="cls-5" d="M331.35,151.33s44.85,20.28,27.08,80.08c0,0-9.49-30.06-39.91-37.84Z"/><path class="cls-7" d="M303.88,206H273.41a2.55,2.55,0,0,1-2.52-1.88l-1.67-6.89a2.45,2.45,0,0,1,2.51-2.93h33.83a2.45,2.45,0,0,1,2.51,2.93l-1.67,6.89A2.55,2.55,0,0,1,303.88,206Z"/><path class="cls-8" d="M244.66,135.18s4.68,40.11,19.14,65.52c0,0,23-10.32,50.18,0,0,0,16.58-21.44,20-68.7,2-27.23-.38-58.32-10-85.11H256.47C247.49,68.71,241.1,98,244.66,135.18Z"/><path class="cls-4" d="M283.91,3.43C277.13,10.6,265.49,25,256.47,46.89h67.46c-6.18-17.14-15.36-32.52-28.34-44A8.55,8.55,0,0,0,283.91,3.43Z"/><path class="cls-5" d="M288.13,133.24s-20.69,43.9,0,96.1C288.13,229.34,311.12,185.78,288.13,133.24Z"/><ellipse class="cls-9" cx="290.07" cy="92.5" rx="26.03" ry="24.3"/><ellipse class="cls-10" cx="290.07" cy="92.5" rx="18.07" ry="16.87"/><g class="cls-11"><ellipse class="cls-3" cx="243.66" cy="353.45" rx="38.1" ry="35.08"/><ellipse class="cls-3" cx="360.2" cy="353.45" rx="34.13" ry="31.42"/><ellipse class="cls-3" cx="303.9" cy="326.22" rx="26.69" ry="24.57"/><ellipse class="cls-3" cx="255.27" cy="311.31" rx="18.59" ry="17.12"/><ellipse class="cls-3" cx="302.67" cy="297.17" rx="12.7" ry="11.7"/><ellipse class="cls-3" cx="280.08" cy="325.95" rx="22.51" ry="20.73"/><ellipse class="cls-3" cx="100.35" cy="405.85" rx="68.83" ry="63.37"/><ellipse class="cls-3" cx="182.99" cy="369.54" rx="51.61" ry="47.51"/><ellipse class="cls-3" cx="435.39" cy="401.87" rx="72.95" ry="67.16"/><ellipse class="cls-3" cx="254.48" cy="386.14" rx="51.61" ry="47.51"/><ellipse class="cls-3" cx="316.49" cy="380.24" rx="58.01" ry="53.41"/></g></g></g></svg>