<svg xmlns="http://www.w3.org/2000/svg" viewBox="0 0 175.51 175.51"><defs><style>.cls-1{fill:#2e2e3a;}.cls-2{fill:#fff;}</style></defs><title>squarespace</title><g id="Layer_2" data-name="Layer 2"><g id="platforms"><circle class="cls-1" cx="87.76" cy="87.76" r="87.76"/><path id="squarespace-logo-stacked" class="cls-2" d="M57.45,120.52c0,2.22-1.19,3.35-3.05,3.35s-3.11-1.23-3.11-3.42v-5.83H50.15v5.9c0,2.87,1.71,4.41,4.22,4.41s4.23-1.54,4.23-4.5v-5.81H57.45Zm8.4-6-4.62,10.22H62.4l1.2-2.68h5.53l1.18,2.68h1.24l-4.63-10.22ZM64.05,121l2.32-5.16L68.68,121Zm48.81-6.42h-3.79v10.15h1.14v-3.58h2.46c2.16,0,4-1.13,4-3.32v0C116.66,115.84,115.15,114.62,112.86,114.62Zm2.64,3.29c0,1.34-1.1,2.24-2.78,2.24h-2.51v-4.47h2.57c1.63,0,2.72.76,2.72,2.2ZM46.23,119.7v0a5.18,5.18,0,1,0-10.35,0v0a5.19,5.19,0,0,0,8.35,4.15l1.35,1.2.78-.85L45,123.09A5.43,5.43,0,0,0,46.23,119.7Zm-2,2.68-1.9-1.73-.77.86,1.9,1.62a3.88,3.88,0,0,1-2.35.75,4,4,0,0,1-4-4.18v0a4,4,0,0,1,4-4.16,4,4,0,0,1,4,4.19v0A4.36,4.36,0,0,1,44.19,122.38Zm-14.87-3.24c-2.23-.47-2.75-1-2.75-2v0c0-.92.84-1.64,2.16-1.64a4.45,4.45,0,0,1,2.93,1.1l.66-.89a5.29,5.29,0,0,0-3.56-1.24c-1.93,0-3.33,1.17-3.33,2.77v0c0,1.67,1.07,2.43,3.4,2.93,2.13.45,2.64,1,2.64,1.93v0c0,1-.9,1.72-2.26,1.72a4.81,4.81,0,0,1-3.48-1.43l-.71.84a5.93,5.93,0,0,0,4.15,1.62c2,0,3.46-1.13,3.46-2.87v0C32.63,120.46,31.59,119.64,29.32,119.14Zm114.91,4.58v-3.55h5.54v-1h-5.54v-3.46h6.19v-1h-7.33v10.15h7.4v-1Zm-42.39-4.58c-2.23-.47-2.75-1-2.75-2v0c0-.92.84-1.64,2.16-1.64a4.43,4.43,0,0,1,2.92,1.1l.67-.89a5.32,5.32,0,0,0-3.56-1.24c-1.93,0-3.34,1.17-3.34,2.77v0c0,1.67,1.08,2.43,3.41,2.93,2.13.45,2.64,1,2.64,1.93v0c0,1-.9,1.72-2.26,1.72a4.81,4.81,0,0,1-3.48-1.43l-.71.84a5.89,5.89,0,0,0,4.14,1.62c2,0,3.47-1.13,3.47-2.87v0C105.15,120.46,104.1,119.64,101.84,119.14Zm-13.79,1h5.54v-1H88.05v-3.46h6.19v-1H86.91v10.15h7.4v-1H88.05Zm34.44-5.62-4.62,10.22h1.18l1.2-2.68h5.52l1.19,2.68h1.23l-4.62-10.22ZM120.7,121l2.32-5.16,2.3,5.16Zm14.63,2.84a4,4,0,0,1-3.93-4.18v0a4,4,0,0,1,3.93-4.16,4.44,4.44,0,0,1,3.19,1.39l.78-.84a5.29,5.29,0,0,0-4-1.61,5.12,5.12,0,0,0-5.13,5.25v0a5.06,5.06,0,0,0,5.09,5.22,5.3,5.3,0,0,0,4.06-1.78l-.76-.74A4.38,4.38,0,0,1,135.33,123.88ZM82.8,117.67v0a2.8,2.8,0,0,0-.78-2,4,4,0,0,0-2.89-1H74.77v10.15h1.15v-3.94h2.89l3,3.94h1.4l-3.11-4.15A3,3,0,0,0,82.8,117.67Zm-6.88,2.13v-4.12h3.13c1.63,0,2.59.76,2.59,2v0c0,1.3-1.09,2.09-2.61,2.09ZM64.28,71.55a2.35,2.35,0,0,0,3.34,0l22-22a8,8,0,0,1,11.35,0,2.36,2.36,0,1,0,3.34-3.34,12.77,12.77,0,0,0-18,0l-22,22A2.35,2.35,0,0,0,64.28,71.55ZM75,78.9l22-22a2.36,2.36,0,1,0-3.34-3.34l-22,22A8,8,0,0,1,60.27,64.21L78,46.47a2.36,2.36,0,1,0-3.34-3.34L56.93,60.87a12.75,12.75,0,1,0,18,18Zm14.7,14.7,22-22a2.36,2.36,0,0,0-3.34-3.34l-22,22.05a8,8,0,0,1-11.36,0,2.36,2.36,0,0,0-3.34,3.34A12.78,12.78,0,0,0,89.66,93.6Zm11.66,3L119.05,78.9a12.75,12.75,0,0,0-18-18l-22,22a2.36,2.36,0,0,0,3.34,3.34l22-22a8,8,0,1,1,11.36,11.35L98,93.29a2.36,2.36,0,0,0,3.34,3.34Z"/></g></g></svg>