<?xml version="1.0" encoding="utf-8"?>
<!-- Svg Vector Icons : http://www.onlinewebfonts.com/icon -->
<!DOCTYPE svg PUBLIC "-//W3C//DTD SVG 1.1//EN" "http://www.w3.org/Graphics/SVG/1.1/DTD/svg11.dtd">
<svg version="1.1" xmlns="http://www.w3.org/2000/svg" xmlns:xlink="http://www.w3.org/1999/xlink" x="0px" y="0px" viewBox="0 0 1000 1000" enable-background="new 0 0 1000 1000" xml:space="preserve">
<metadata> Svg Vector Icons : http://www.onlinewebfonts.com/icon </metadata>
<g><path d="M558.8,67.2l100.6,204c9.5,19.4,28,32.7,49.3,35.9l225.1,32.7c53.8,7.9,75.1,73.8,36.3,111.7L807.5,610.4c-15.4,15.1-22.5,36.7-18.8,57.9l38.5,224.2c9.2,53.5-47,94.4-95.1,69L530.7,855.8c-19.1-10.1-41.9-10.1-61,0L268.3,961.6c-48,25.3-104.3-15.6-95.1-69l38.5-224.2c3.7-21.2-3.4-43-18.8-57.9l-163-158.8c-38.8-37.9-17.5-104,36.3-111.7l225.1-32.7c21.3-3.1,39.9-16.4,49.3-35.9l100.6-204C465.3,18.6,534.8,18.6,558.8,67.2z"/></g>
</svg>