<svg xmlns="http://www.w3.org/2000/svg" viewBox="0 0 27.32 22.75"><defs><style>.cls-1{fill:#e55039;}</style></defs><title>testimonial-comma</title><g id="Layer_2" data-name="Layer 2"><g id="testimonial-section"><path class="cls-1" d="M9.46,0H3.15A3.07,3.07,0,0,0,.92.9,3,3,0,0,0,0,3.1V9.31A3,3,0,0,0,.92,11.5a3,3,0,0,0,2.23.91H6.83A1.55,1.55,0,0,1,8,12.86,1.51,1.51,0,0,1,8.41,14v.52A4,4,0,0,1,7.18,17.4a4.11,4.11,0,0,1-3,1.21H3.15a1.05,1.05,0,0,0-.74.31,1,1,0,0,0-.31.73v2.07a1,1,0,0,0,.31.72,1,1,0,0,0,.74.31H4.2a8.39,8.39,0,0,0,3.26-.65,8.62,8.62,0,0,0,2.69-1.77A8.63,8.63,0,0,0,12,17.68a7.94,7.94,0,0,0,.66-3.2V3.1A3,3,0,0,0,11.69.9,3.07,3.07,0,0,0,9.46,0Z"/><path class="cls-1" d="M26.4.9A3.06,3.06,0,0,0,24.17,0H17.86a3.07,3.07,0,0,0-2.23.9,3,3,0,0,0-.92,2.2V9.31a3,3,0,0,0,.92,2.19,3,3,0,0,0,2.23.91h3.68a1.55,1.55,0,0,1,1.12.45,1.47,1.47,0,0,1,.46,1.1v.52a4,4,0,0,1-1.23,2.92,4.07,4.07,0,0,1-3,1.21H17.86a1,1,0,0,0-.73.31,1,1,0,0,0-.32.73v2.07a1,1,0,0,0,.32.72,1,1,0,0,0,.73.31h1.06a8.38,8.38,0,0,0,3.25-.65,8.24,8.24,0,0,0,4.49-4.42,7.94,7.94,0,0,0,.66-3.2V3.1A3,3,0,0,0,26.4.9Z"/></g></g></svg>