<svg xmlns="http://www.w3.org/2000/svg" viewBox="0 0 177 177"><defs><style>.cls-1{fill:#34526f;}.cls-2{fill:#fff;}</style></defs><title>tumblr</title><g id="Layer_2" data-name="Layer 2"><g id="platforms"><path class="cls-1" d="M88.5,0a88.5,88.5,0,0,1,0,177C39.83,177,0,137.17,0,88.5S39.83,0,88.5,0Z"/><path class="cls-2" d="M110.62,109.52H97.35a.54.54,0,0,1-.55-.55V86.29a.55.55,0,0,1,.55-.56h14.93a.55.55,0,0,0,.56-.55v-21a.54.54,0,0,0-.56-.55H97.35a.54.54,0,0,1-.55-.55V43.14a.54.54,0,0,0-.56-.55h-26a5.25,5.25,0,0,0-4.43,3.87C64.72,57,59.74,63.61,50.33,66.38l-.55.55v18.8a.55.55,0,0,0,.55.56h9.41v22.12c0,17.7,12.17,26.55,35.4,26.55,9.4,0,18.25-3.32,21.57-7.19l.55-.55Zm1.66,16.59c-2.76,2.77-8.85,5-14.38,5h-.55c-18.81,0-23.78-14.38-23.78-22.68v-26a.55.55,0,0,0-.56-.56H64.16a.54.54,0,0,1-.55-.55V69.14C73,65.27,78.54,58.08,80.2,46.46a.55.55,0,0,1,.56-.55H92.92a.55.55,0,0,1,.56.55V66.93a.54.54,0,0,0,.55.55H109a.55.55,0,0,1,.56.55V81.86a.55.55,0,0,1-.56.56H94a.54.54,0,0,0-.55.55v24.34c0,5.53,2.76,8.29,7.74,8.29a27.93,27.93,0,0,0,6.64-1.1h.55l3.87,11.61Z"/></g></g></svg>