<svg xmlns="http://www.w3.org/2000/svg" viewBox="0 0 175.51 175.51"><defs><style>.cls-1{fill:#f9e4e4;}.cls-2{fill:#1f8eed;}</style></defs><title>weebly</title><g id="Layer_2" data-name="Layer 2"><g id="platforms"><circle class="cls-1" cx="87.76" cy="87.76" r="87.76"/><path class="cls-2" d="M96.92,70.63a5.85,5.85,0,0,1,10.86-2.13c1,1.63.88,3.61.86,5.46a11.56,11.56,0,0,1,8.86,2.38c0-1.8-.09-3.61.07-5.41a6,6,0,0,1,11.14-2.32c1,1.67.81,3.65.8,5.5a6.5,6.5,0,0,1,4.93,1.33c1.36,1.07,1.93,2.77,2.49,4.35a11.43,11.43,0,0,1,2-3.86,6,6,0,0,1,7-1.25,5.64,5.64,0,0,1,3.29,4.72A10.29,10.29,0,0,1,148,84l-8.13,20.12a6.9,6.9,0,0,1-2.66,3.34,6.21,6.21,0,0,1-6.58-.22,5.31,5.31,0,0,1-2.4-4.88c.19-1.76.53-3.5.87-5.23a6.07,6.07,0,0,1-10.9.44,11.14,11.14,0,0,1-12.27,2.22,6.67,6.67,0,0,1-5.25.38,7,7,0,0,1-2.69-2A16.05,16.05,0,0,1,84.43,100a12.88,12.88,0,0,1-5.34-3.61c-2.77,3.11-7.1,4.39-11.16,4.38a12.94,12.94,0,0,1-11.12-6.39c-.66,2.1-1.58,4.32-3.57,5.49a6.6,6.6,0,0,1-7.78-.78A9.27,9.27,0,0,1,44,97a6.43,6.43,0,0,1-10.37,2,9,9,0,0,1-2.1-3.6c-1.49-4.24-3-8.47-4.51-12.72-.64-1.81-1-3.92-.09-5.69a6.2,6.2,0,0,1,8.62-2.22,6.36,6.36,0,0,1,2.6,3.55A6.88,6.88,0,0,1,40.33,75a6.19,6.19,0,0,1,7.89.54,7.38,7.38,0,0,1,1.61,2.76,6.22,6.22,0,0,1,3.33-4,6.31,6.31,0,0,1,7.4,1.84,12.55,12.55,0,0,1,9.61-2.13,13,13,0,0,1,8.14,5.33,12.85,12.85,0,0,1,7.85-5.29,12.59,12.59,0,0,1,10.66,2.71c0-2.07-.13-4.15.1-6.21Zm3.22,1.21c0,7.35,0,14.7,0,22a3.78,3.78,0,0,0,.59,2.37,2.7,2.7,0,0,0,3.55.59,3.52,3.52,0,0,0,1.15-1.7c2.34,3.19,7.34,2.87,10.07.37,4.1-3.61,4.41-10.2,1.58-14.66a7.77,7.77,0,0,0-6.38-3.7,8.36,8.36,0,0,0-5.38,1.78c0-2.54.07-5.08,0-7.62a2.55,2.55,0,0,0-3-2.38,2.71,2.71,0,0,0-2.08,2.9Zm22.27-2.72a3,3,0,0,0-1.59,3c0,7.45,0,14.9,0,22.35a2.74,2.74,0,0,0,2.44,3,2.66,2.66,0,0,0,2.89-2.66c.07-7.33,0-14.66,0-22a4.55,4.55,0,0,0-.62-2.92A2.66,2.66,0,0,0,122.41,69.12Zm-92.7,9.73c-.24,1.31.36,2.58.77,3.81,1.46,4.08,2.89,8.18,4.37,12.26a3.4,3.4,0,0,0,2.95,2.53,3,3,0,0,0,3.25-2.18c1-3,1.92-6,2.91-9,.92,2.8,1.82,5.61,2.72,8.42a3.84,3.84,0,0,0,1.67,2.42,3.27,3.27,0,0,0,3.59-.4,5.72,5.72,0,0,0,1.36-2.38C54.84,90,56.41,85.64,58,81.28a3.3,3.3,0,0,0-.1-3c-1.1-1.61-4-1.37-4.63.56-1.17,3.6-2.19,7.25-3.33,10.86-1.17-3.58-2.21-7.2-3.42-10.76a2.72,2.72,0,0,0-4.13-1.24,3.81,3.81,0,0,0-1.15,2c-1,3.35-2.08,6.7-3.15,10-1.09-3.5-2.12-7-3.21-10.52-.45-2.47-4.39-2.63-5.12-.29ZM61.3,80a11,11,0,0,0-1.25,13.28,9.21,9.21,0,0,0,5.57,3.89A12.73,12.73,0,0,0,74.23,96a5.55,5.55,0,0,0,2.52-2.22,2.19,2.19,0,0,0-2.47-3c-1.24.43-2.29,1.27-3.54,1.7a5.8,5.8,0,0,1-5.65-.88,4.81,4.81,0,0,1-1.36-2.51c3.92,0,7.84,0,11.76,0a1.9,1.9,0,0,0,1.87-1.86,9.87,9.87,0,0,0-8.43-10A9.07,9.07,0,0,0,61.3,80Zm21.77-.84a10.82,10.82,0,0,0-3.43,11.26,9.3,9.3,0,0,0,4.87,6A12.11,12.11,0,0,0,95,96.08a5.45,5.45,0,0,0,2.65-2.38,2.2,2.2,0,0,0-2.54-2.85C94,91.25,93,92,92,92.4a5.88,5.88,0,0,1-5.89-.62,4.78,4.78,0,0,1-1.49-2.61c3.89-.06,7.79,0,11.69,0a1.89,1.89,0,0,0,1.94-1.86,9.9,9.9,0,0,0-7.43-9.85,9.13,9.13,0,0,0-7.71,1.74Zm45.11-.23a3.46,3.46,0,0,0,.28,2.5c1.9,4.69,3.78,9.39,5.68,14.08-.74,1.83-1.49,3.65-2.22,5.48a3.51,3.51,0,0,0-.29,2.5,2.79,2.79,0,0,0,3.24,1.45,3.64,3.64,0,0,0,2.06-2.44c2.88-7.17,5.8-14.33,8.68-21.51a2.42,2.42,0,0,0-.9-3.19,2.67,2.67,0,0,0-3.9,1.27c-1.37,3.34-2.65,6.72-4,10.08-1.16-3.16-2.33-6.33-3.48-9.5a3.11,3.11,0,0,0-1.67-2,2.71,2.71,0,0,0-3.49,1.33ZM65.29,82.71A5.69,5.69,0,0,0,64,85.48h8.52a6,6,0,0,0-1.29-2.77,4.14,4.14,0,0,0-5.93,0Zm20.7,0a5.84,5.84,0,0,0-1.33,2.8c2.84,0,5.69,0,8.53,0a6.17,6.17,0,0,0-1.25-2.72A4.15,4.15,0,0,0,86,82.68Zm22.63-.6a3.77,3.77,0,0,0-2.35,1.72,7,7,0,0,0,.27,7.32,3.66,3.66,0,0,0,5.44.56,6.59,6.59,0,0,0,.53-8.11,3.66,3.66,0,0,0-3.89-1.49Z"/></g></g></svg>