<svg xmlns="http://www.w3.org/2000/svg" viewBox="0 0 175.51 175.51"><defs><style>.cls-1{fill:#f9e4e4;}.cls-2{fill:#f9c638;}.cls-3{fill:#2a2d2c;}.cls-4{fill:#fff;}</style></defs><title>wix</title><g id="Layer_2" data-name="Layer 2"><g id="platforms"><circle class="cls-1" cx="87.76" cy="87.76" r="87.76"/><path class="cls-2" d="M121.32,37.38h-3.88c-3.07,0-5.9,2.33-8.06,4.2a44.12,44.12,0,0,0-5.64,6.18,35.66,35.66,0,0,0-2.27-4.88,9.08,9.08,0,0,0-5.7-4.77A19.13,19.13,0,0,0,91.91,38H83.6a19,19,0,0,0-3.85.13,9.06,9.06,0,0,0-5.7,4.77,34.55,34.55,0,0,0-2.28,4.88,44,44,0,0,0-5.63-6.18c-2.17-1.87-5-4.21-8.07-4.2H48.65c-1.34,0-4.32-.35-3.62,1.84.17.53.78,1,1.12,1.45a16.82,16.82,0,0,1,1.11,1.55c.54.86,1.06,1.74,1.57,2.63C50,47,51.06,49.25,52.26,51.4A95.52,95.52,0,0,0,61.16,65c2.52,3.12,5.57,6.26,9.35,7.81Q66.23,80.76,62,88.71c-2.46,4.59-4.92,9.15-7.51,13.66-.13.22-.26.43-.37.65a5.67,5.67,0,0,0-.83,2.28c0,1.47,2.18,1.51,3.22,1.52s2.25,0,3.37,0l5.85-.06c1.15,0,2.33,0,3.48-.08a10.17,10.17,0,0,0,7.32-4.14c.56-.78,5.81-9.38,7.93-12.86.8-1.32,3.32-5.25,3.32-5.25s2.51,3.93,3.31,5.25c2.12,3.48,7.37,12.08,7.93,12.86a10.19,10.19,0,0,0,7.33,4.14c1.15.11,2.32.06,3.47.08l5.86.06c1.12,0,2.24,0,3.37,0s3.21,0,3.21-1.52a5.51,5.51,0,0,0-.82-2.28l-.37-.65c-2.59-4.51-5-9.07-7.51-13.66L105,72.81c3.78-1.55,6.83-4.69,9.36-7.81a94.6,94.6,0,0,0,8.89-13.6c1.21-2.15,2.23-4.4,3.44-6.54.5-.89,1-1.77,1.56-2.63a19.07,19.07,0,0,1,1.12-1.55,5.89,5.89,0,0,0,1.11-1.45c.7-2.19-2.27-1.84-3.62-1.84Z"/><path class="cls-3" d="M94.17,49.57l.59-.1a4.55,4.55,0,0,0,.8-.23A4.68,4.68,0,0,0,97,48.41a1.67,1.67,0,0,0,.48-.52c-1.71,0-3,0-3.83,0-.23,0-.39.56-.5,1.76,0,.09.54,0,1,0"/><path class="cls-3" d="M89.46,58ZM85.8,58Zm-.28-.39a.12.12,0,0,0,0,.09.12.12,0,0,0,.05.09,1.83,1.83,0,0,0,.26.21,3.37,3.37,0,0,0,3.66,0,1.78,1.78,0,0,0,.27-.21c.07-.05.1-.13,0-.19a.16.16,0,0,0-.22,0c-.08.06-.16.13-.24.18h0a3,3,0,0,1-1.69.49,3,3,0,0,1-1.69-.49h0l-.23-.18a.13.13,0,0,0-.19,0Z"/><path class="cls-3" d="M93,56.41s0,0,0,0l0,.05Zm4-4.78a2.29,2.29,0,0,0-.66-.86,2.06,2.06,0,0,0-2.6.11A3.57,3.57,0,0,0,93.07,52a6.78,6.78,0,0,0-.63,3A2.15,2.15,0,0,0,93,56.28a2.74,2.74,0,0,0,1.5.69,2.58,2.58,0,0,0,1.67-.07,2.49,2.49,0,0,0,1-1.62,6.92,6.92,0,0,0,.32-2.35,4.21,4.21,0,0,0-.37-1.3Z"/><path class="cls-4" d="M95.16,53.54A4.71,4.71,0,0,1,96,53.3c-.61.05-.92-.2-1-.73l-.11-1.11a2.94,2.94,0,0,1-.27,1.4.83.83,0,0,1-.29.3l-.36.11a1.87,1.87,0,0,1-.42.09c.66-.06,1,.11,1.08.48.09.54.15.88.19,1,0-.82.13-1.27.33-1.35"/><path class="cls-4" d="M96,55.18l-.07-.68a2.1,2.1,0,0,1-.15.87.67.67,0,0,1-.2.18l-.21.07a1.32,1.32,0,0,1-.26.05c.4,0,.63.07.68.29s.09.56.11.65c0-.51.07-.78.2-.83a2.93,2.93,0,0,1,.51-.14c-.37,0-.57-.14-.61-.46"/><path class="cls-3" d="M82.07,49.61c-.12-1.2-.28-1.8-.51-1.76-.84.06-2.12.07-3.83,0a1.8,1.8,0,0,0,.48.52,4.75,4.75,0,0,0,1.47.83,4.32,4.32,0,0,0,.8.23,5.33,5.33,0,0,0,.59.1c.46.07,1,.13,1,0"/><path class="cls-3" d="M82.21,56.42a.12.12,0,0,1,0-.05l0,0Zm-4.4-3.49a6.46,6.46,0,0,0,.32,2.35,2.45,2.45,0,0,0,1,1.62,2.58,2.58,0,0,0,1.67.07,2.74,2.74,0,0,0,1.49-.69A2,2,0,0,0,82.79,55a6.65,6.65,0,0,0-.63-3,3.57,3.57,0,0,0-.73-1.11,2.06,2.06,0,0,0-2.6-.11,2.28,2.28,0,0,0-.65.86,3.73,3.73,0,0,0-.37,1.3Z"/><path class="cls-4" d="M80.07,53.54a4.71,4.71,0,0,0-.83-.24c.61.05.93-.2,1-.73l.11-1.11a3,3,0,0,0,.28,1.4.83.83,0,0,0,.29.3l.36.11a1.76,1.76,0,0,0,.42.09c-.67-.06-1,.11-1.08.48-.1.54-.15.88-.2,1q0-1.23-.33-1.35"/><path class="cls-4" d="M79.26,55.18l.07-.68a2.06,2.06,0,0,0,.16.87.54.54,0,0,0,.19.18l.21.07a1.32,1.32,0,0,0,.26.05c-.4,0-.63.07-.67.29a5.65,5.65,0,0,1-.12.65c0-.51-.07-.78-.2-.83a2.93,2.93,0,0,0-.51-.14c.38,0,.58-.14.61-.46"/><path class="cls-4" d="M54.35,103.16c-.17.32-.37.7-.53,1.08a3,3,0,0,0-.26,1.06h0a.83.83,0,0,0,.27.65,1.84,1.84,0,0,0,.74.38,7.38,7.38,0,0,0,1.92.2h.34c1,0,2,0,3,0l5.86-.07H67c.72,0,1.44,0,2.13-.08a9.85,9.85,0,0,0,7.12-4c.13-.17.57-.87,1.17-1.84s1.38-2.22,2.2-3.56l4.55-7.44c.8-1.32,3.31-5.25,3.31-5.25a.32.32,0,0,1,.25-.14.29.29,0,0,1,.24.14s2.51,3.93,3.32,5.25c1.59,2.6,4.94,8.1,6.75,11,.6,1,1,1.67,1.16,1.84a9.85,9.85,0,0,0,7.12,4c.7.07,1.41.08,2.13.08h1.33l5.85.07c1,0,2,0,3,0H119a9.36,9.36,0,0,0,1.43-.09,2.32,2.32,0,0,0,1.23-.49.88.88,0,0,0,.28-.65h0a3,3,0,0,0-.27-1.06,11.85,11.85,0,0,0-.53-1.07c-.11-.21-.24-.43-.36-.65-2.59-4.51-5.06-9.08-7.52-13.66Q109,80.9,104.75,73a.33.33,0,0,1,0-.24.3.3,0,0,1,.17-.16c3.69-1.52,6.72-4.63,9.23-7.73A95.29,95.29,0,0,0,123,51.26c.91-1.63,1.72-3.33,2.59-5a33,33,0,0,1-7.31,7.86C114.1,57.5,107,60.83,97,64.09q-14.44,4.72-21.25,11c-2.16,2-3.67,3.33-4.55,4-.2.2-1.16,1.21-2.84,3.06a96.2,96.2,0,0,0-6.44,8.21l-2.2,3.13c-1.63,3-3.28,6-5,9l-.37.65"/><path class="cls-3" d="M130,39.07a1.88,1.88,0,0,1-.39.58c-.2.22-.44.45-.65.71h0a16.3,16.3,0,0,0-1.14,1.6h0c-.54.87-1.07,1.76-1.57,2.65C125,46.77,124,49,122.81,51.15A94.25,94.25,0,0,1,114,64.68c-2.51,3.09-5.51,6.17-9.15,7.66a.53.53,0,0,0-.29.3.53.53,0,0,0,0,.41q4.27,8,8.53,15.9c2.46,4.59,4.92,9.15,7.51,13.67h0l.37.64c.17.33.37.69.52,1.06a2.58,2.58,0,0,1,.24,1h0a.6.6,0,0,1-.2.49,2.23,2.23,0,0,1-1.11.43,8.92,8.92,0,0,1-1.4.09h-.38c-1,0-2,0-3,0l-5.85-.06h-1.36a20.16,20.16,0,0,1-2.07-.07,9.68,9.68,0,0,1-7-3.93c0-.08-.2-.3-.39-.61-1.41-2.21-5.65-9.18-7.51-12.22-.81-1.32-3.32-5.25-3.32-5.25a.52.52,0,0,0-.43-.24.5.5,0,0,0-.43.24S84.82,88.05,84,89.37l-4.55,7.44-2.2,3.57-.76,1.21-.4.61a9.66,9.66,0,0,1-7,3.93,20.35,20.35,0,0,1-2.08.07H65.7l-5.85.06c-1,0-2,0-3,0h-.38a7.21,7.21,0,0,1-1.86-.19,1.51,1.51,0,0,1-.65-.33.64.64,0,0,1-.2-.49h0a2.83,2.83,0,0,1,.25-1,11.62,11.62,0,0,1,.52-1.06c.11-.2.23-.42.36-.64h0C57.51,98.1,60,93.54,62.43,89q4.26-8,8.53-15.9a.49.49,0,0,0,0-.41.5.5,0,0,0-.29-.3c-3.64-1.49-6.64-4.57-9.15-7.66A95.11,95.11,0,0,1,52.7,51.15c-1.18-2.12-2.2-4.38-3.43-6.54-.51-.89-1-1.78-1.58-2.65h0c-.36-.57-.76-1.1-1.15-1.6a9.31,9.31,0,0,0-.64-.72,1.71,1.71,0,0,1-.39-.58,1.42,1.42,0,0,1-.08-.44.51.51,0,0,1,.1-.34,1.3,1.3,0,0,1,.71-.32,6.77,6.77,0,0,1,1.23-.09l1.13,0h9.48a7.93,7.93,0,0,1,4.1,1.33A26.72,26.72,0,0,1,65.8,42a42.78,42.78,0,0,1,5.57,6.12.5.5,0,0,0,.48.18.48.48,0,0,0,.4-.32,34.17,34.17,0,0,1,2.24-4.82h0a8.58,8.58,0,0,1,5.35-4.5,9.09,9.09,0,0,1,1.84-.15l1.91,0h8.31c.64,0,1.28,0,1.91,0a9,9,0,0,1,1.84.15,8.55,8.55,0,0,1,5.35,4.5h0a33.08,33.08,0,0,1,2.24,4.82.51.51,0,0,0,.4.32.48.48,0,0,0,.48-.18A43.38,43.38,0,0,1,109.71,42a27.47,27.47,0,0,1,3.62-2.74,7.9,7.9,0,0,1,4.1-1.33h9.47l1.13,0a5.07,5.07,0,0,1,1.56.18.92.92,0,0,1,.38.23.51.51,0,0,1,.11.34,1.79,1.79,0,0,1-.08.44Zm.74-1.44a2.14,2.14,0,0,0-1.27-.65,7,7,0,0,0-1.44-.12l-1.13,0h-9.47a9.11,9.11,0,0,0-4.63,1.47,28.76,28.76,0,0,0-3.75,2.85,40.44,40.44,0,0,0-5.15,5.57,36.66,36.66,0,0,0-2-4.13,9.51,9.51,0,0,0-6-5,10.14,10.14,0,0,0-2.05-.17c-.66,0-1.31,0-1.91,0H83.6c-.6,0-1.25,0-1.91,0a10.14,10.14,0,0,0-2,.17,9.53,9.53,0,0,0-6,5h0a36.27,36.27,0,0,0-2,4.11,41.12,41.12,0,0,0-5.15-5.57,28.88,28.88,0,0,0-3.76-2.85,9.08,9.08,0,0,0-4.62-1.47H48.61l-1.13,0a5.84,5.84,0,0,0-1.9.24,1.94,1.94,0,0,0-.81.53,1.5,1.5,0,0,0-.35,1,2.28,2.28,0,0,0,.13.75,2.76,2.76,0,0,0,.6.95c.23.25.46.48.6.66.38.5.76,1,1.08,1.51h0c.53.86,1.05,1.73,1.55,2.61,1.2,2.11,2.22,4.36,3.44,6.54a95.57,95.57,0,0,0,8.94,13.67c2.44,3,5.38,6.05,9.05,7.72q-4.16,7.71-8.28,15.43c-2.46,4.59-4.92,9.14-7.5,13.64h0c-.13.21-.26.43-.38.67a11.06,11.06,0,0,0-.56,1.14,3.72,3.72,0,0,0-.33,1.36v0h0a1.6,1.6,0,0,0,.51,1.21,3.06,3.06,0,0,0,1.65.71,11.91,11.91,0,0,0,1.55.1h.39c1,0,2,0,3,0l5.85-.06h1.35a20,20,0,0,0,2.18-.08,10.68,10.68,0,0,0,7.69-4.35l.43-.65C78.77,99.91,83,93,84.88,89.91c.39-.66,1.22-2,2-3.12.36-.55.68-1.07.93-1.45l.92,1.45c.73,1.15,1.56,2.46,2,3.12l4.55,7.44,2.2,3.57c.3.48.56.9.77,1.22s.34.53.43.65a10.66,10.66,0,0,0,7.69,4.35,19.86,19.86,0,0,0,2.17.08h1.35c2,0,3.9,0,5.85.06,1,0,2,0,3,0H119a8.8,8.8,0,0,0,2.13-.23,2.68,2.68,0,0,0,1.08-.57,1.64,1.64,0,0,0,.51-1.23h0a3.71,3.71,0,0,0-.32-1.36,11.21,11.21,0,0,0-.57-1.15c-.12-.23-.25-.45-.37-.66h0c-2.59-4.5-5-9-7.5-13.64L105.71,73c3.66-1.67,6.61-4.72,9-7.72a95.63,95.63,0,0,0,9-13.67c1.22-2.18,2.23-4.43,3.43-6.54.5-.88,1-1.75,1.55-2.6h0A16.22,16.22,0,0,1,129.77,41h0c.14-.18.37-.41.6-.66a2.64,2.64,0,0,0,.59-.94,2.41,2.41,0,0,0,.14-.76,1.51,1.51,0,0,0-.36-1Z"/><path class="cls-2" d="M92.82,112c-1.38.72-1.9,2-1.9,5.34a5.4,5.4,0,0,1,1.75-1.06,7.66,7.66,0,0,0,1.78-1c1.17-.86,1.35-2,1.35-3.82a7.62,7.62,0,0,0-3,.51"/><path class="cls-3" d="M84.6,112.76a5.31,5.31,0,0,0-1.46,2.58l-3.74,14.5L76.29,118a10.21,10.21,0,0,0-1.71-3.88,5.2,5.2,0,0,0-7.16,0A10.24,10.24,0,0,0,65.7,118l-3.11,11.86-3.74-14.5a5.31,5.31,0,0,0-1.46-2.58,6.43,6.43,0,0,0-4.58-1.27L60,138.58a8.85,8.85,0,0,0,3.55-.43c1.55-.79,2.29-1.4,3.24-5.09.83-3.28,3.18-12.94,3.4-13.63.1-.34.24-1.15.84-1.15s.73.81.84,1.15c.21.69,2.56,10.35,3.4,13.63.94,3.69,1.68,4.3,3.23,5.09a8.87,8.87,0,0,0,3.55.43l7.17-27.09a6.46,6.46,0,0,0-4.59,1.27"/><path class="cls-3" d="M95.8,115.91a4.36,4.36,0,0,1-1.47,1.27c-.66.36-1.29.61-2,.94a2.05,2.05,0,0,0-1.44,2.07v18.39a6.17,6.17,0,0,0,3-.37c1.53-.78,1.88-1.52,1.89-4.89V116.89h0v-1"/><path class="cls-3" d="M113.66,125.1l9.09-13.52s-3.84-.65-5.74,1.08a21.61,21.61,0,0,0-2.57,3.09l-3.35,4.83a.74.74,0,0,1-1.42,0l-3.35-4.83a21.24,21.24,0,0,0-2.58-3.09c-1.9-1.73-5.73-1.08-5.73-1.08l9.09,13.52L98,138.58s4,.51,5.9-1.22a18.41,18.41,0,0,0,2.39-2.91l3.35-4.82a.74.74,0,0,1,1.42,0l3.35,4.82a20.22,20.22,0,0,0,2.46,2.91c1.9,1.73,5.83,1.22,5.83,1.22l-9.07-13.48"/></g></g></svg>