<svg xmlns="http://www.w3.org/2000/svg" viewBox="0 0 44.71 73.17"><defs><style>.cls-1{opacity:0.2;}.cls-2{fill:#fff;}</style></defs><title>enterprise-plan</title><g id="Layer_2" data-name="Layer 2"><g id="Panel"><g class="cls-1"><path class="cls-2" d="M37,38.87c1,0,2.1-.59,2.1-3.43S38,32,37,32s-2.09.6-2.09,3.43S36.07,38.87,37,38.87Z"/><path class="cls-2" d="M41.91,45.73v-.11a28.05,28.05,0,0,0,2.8-12.47c0-3.81-1.55-7.79-2.84-10.46a38.31,38.31,0,0,0-2-3.57c-.86-1.38-1.18-1.89-2-2a1.39,1.39,0,0,0-1.51.9,3.43,3.43,0,0,1-2.87,2.79A9.59,9.59,0,0,0,34.93,16a1.43,1.43,0,0,0-2.8,0,6.9,6.9,0,0,1-.9,3.34c-.68-2.89-1.66-6.08-2.55-8.66a65.87,65.87,0,0,0-2.84-7C24.52,1,23.61,0,22.35,0s-2.16,1-3.49,3.67a66.07,66.07,0,0,0-2.83,7c-.89,2.58-1.87,5.77-2.56,8.66a6.9,6.9,0,0,1-.9-3.34,1.28,1.28,0,0,0-1.39-1.15A1.29,1.29,0,0,0,9.78,16a9.59,9.59,0,0,0,1.44,4.83,3.43,3.43,0,0,1-2.87-2.79,1.41,1.41,0,0,0-1.52-.9c-.84.08-1.16.59-2,2a38.31,38.31,0,0,0-2,3.57A25.43,25.43,0,0,0,0,33.15,30,30,0,0,0,1.68,43.64a19.35,19.35,0,0,0,1.15,2.47,33.1,33.1,0,0,1-1.19,6.34C.49,57-.6,61.28,2.11,64c1.37,1.38,3.51,2.13,6.51,2.28A7.49,7.49,0,0,0,10,69.58c1.77,2.38,5,3.59,9.59,3.59a5.11,5.11,0,0,0,2.78-.7,5.14,5.14,0,0,0,2.79.7c4.59,0,7.81-1.21,9.59-3.59a7.49,7.49,0,0,0,1.36-3.3c3-.15,5.15-.9,6.52-2.28,2.71-2.72,1.63-7,.49-11.53A30.13,30.13,0,0,1,41.91,45.73ZM6.81,21a5.44,5.44,0,0,0,1.26,1.12,9.56,9.56,0,0,0,3.11,1.14,5.33,5.33,0,0,1,1.21.35,7,7,0,0,1,.18,1.59A1.29,1.29,0,0,0,14,26.29a1.29,1.29,0,0,0,1.4-1.14c0-2.36,1.2-7.45,3.06-13a48.42,48.42,0,0,1,3.92-9.3,48.21,48.21,0,0,1,3.93,9.3c1.86,5.53,3.06,10.62,3.06,13a1.42,1.42,0,0,0,2.79,0,6.48,6.48,0,0,1,.19-1.59,5.18,5.18,0,0,1,1.2-.35,7.4,7.4,0,0,0,4.38-2.27c1.58,2.72,4,7.72,4,12.21a27.84,27.84,0,0,1-1.76,9.79c-1.59,4-4.1,6.61-7.5,7.9A38.94,38.94,0,0,1,36,46.43a1.8,1.8,0,0,0,.54-2C36,43,33.64,42.5,31.18,42a15.31,15.31,0,0,1-2.35-.58.78.78,0,0,0-.2-.11c.88-1.54,1.79-3.34,2.78-5.35,1.07-2.18,2.39-4.88,3.07-5.4A1,1,0,0,0,34.55,29a1.61,1.61,0,0,0-2-.06c-1.09.82-2.09,2.8-3.76,6.21a62.35,62.35,0,0,1-3.63,6.71c-1.79,2.7-2.73,2.78-2.84,2.78h0c-.12,0-1.06-.11-2.83-2.78a60.64,60.64,0,0,1-3.63-6.71c-1.68-3.41-2.68-5.39-3.76-6.21a1.62,1.62,0,0,0-2,.06,1,1,0,0,0,.08,1.61c.68.52,2,3.22,3.07,5.4,1,2,1.89,3.81,2.78,5.34l-.2.11a14.8,14.8,0,0,1-2.35.59c-2.46.5-4.79,1-5.39,2.38a1.81,1.81,0,0,0,.53,2,38.67,38.67,0,0,1,3.42,4.46,12.14,12.14,0,0,1-6.46-5.27,1.14,1.14,0,0,0-.44-.76c-1.45-2.73-2.4-6.51-2.4-11.71C2.79,28.66,5.22,23.66,6.81,21ZM22.35,58.31c-2,0-4.83-4.12-7.08-7.43a47.08,47.08,0,0,0-4.34-5.8,18.49,18.49,0,0,1,3.27-.86,13,13,0,0,0,3.16-.87c1.56,2.24,3.12,3.52,5,3.52h.15c1.81-.07,3.33-1.34,4.84-3.52a13.16,13.16,0,0,0,3.17.87,18.49,18.49,0,0,1,3.27.86,47.08,47.08,0,0,0-4.34,5.8C27.19,54.19,24.4,58.31,22.35,58.31ZM4.27,62.56c-1.86-1.88-.86-5.83.1-9.64.3-1.18.61-2.38.84-3.56a14.72,14.72,0,0,0,6.79,4,36.07,36.07,0,0,0-2.3,5.1A19.63,19.63,0,0,0,8.49,64C6.48,63.85,5.09,63.38,4.27,62.56Zm28.07,5.83c-1.25,1.68-3.6,2.49-7.2,2.49-1.08,0-1.39-.25-1.39-1.14V64a1.29,1.29,0,0,0-1.4-1.14A1.28,1.28,0,0,0,21,64v5.72c0,.89-.32,1.14-1.39,1.14-3.6,0-6-.81-7.2-2.49-2.65-3.54.16-10.43,2.11-14,2.42,3.43,4.86,6.21,7.87,6.21s5.46-2.78,7.88-6.21C32.18,58,35,64.84,32.34,68.39Zm8.11-5.83c-.82.82-2.21,1.29-4.24,1.42A19.93,19.93,0,0,0,35,58.42a35.61,35.61,0,0,0-2.31-5.11,14.58,14.58,0,0,0,6.78-4.21c.24,1.27.56,2.56.88,3.83C41.32,56.74,42.32,60.68,40.45,62.56Z"/><path class="cls-2" d="M7.68,38.87c1,0,2.1-.59,2.1-3.43S8.64,32,7.68,32s-2.09.6-2.09,3.43S6.73,38.87,7.68,38.87Z"/><path class="cls-2" d="M22.35,42.3a1.29,1.29,0,0,0,1.4-1.14v-24A1.29,1.29,0,0,0,22.35,16,1.28,1.28,0,0,0,21,17.15v24A1.28,1.28,0,0,0,22.35,42.3Z"/><path class="cls-2" d="M22.35,13.72a1.29,1.29,0,0,0,1.4-1.14V11.43a1.29,1.29,0,0,0-1.4-1.14A1.28,1.28,0,0,0,21,11.43v1.15A1.28,1.28,0,0,0,22.35,13.72Z"/></g></g></g></svg>