<svg xmlns="http://www.w3.org/2000/svg" viewBox="0 0 60.9 74.86"><defs><style>.cls-1{opacity:0.2;}.cls-2{fill:#fff;}</style></defs><title>free-plan</title><g id="Layer_2" data-name="Layer 2"><g id="Panel"><g class="cls-1"><path class="cls-2" d="M45.15,13.52A6.34,6.34,0,0,0,37.09,4L34.23,5.63a6.35,6.35,0,0,0-12.65.71v5C8.82,14.78,0,25.39,0,37.42c0,13,10.07,24,24.11,26.7v4.4a6.35,6.35,0,0,0,12.69,0v-4.4c14-2.66,24.1-13.73,24.1-26.7C60.9,27.48,54.78,18.29,45.15,13.52ZM35.33,61.8a1.25,1.25,0,0,0-1.07,1.25v5.47a3.81,3.81,0,0,1-7.61,0V63.05a1.26,1.26,0,0,0-1.08-1.25c-13.34-2.09-23-12.34-23-24.38,0-11.15,8.47-21,20.61-23.89a1.27,1.27,0,0,0,1-1.23v-6a3.81,3.81,0,0,1,7.61,0V7.8a1.29,1.29,0,0,0,.64,1.1,1.26,1.26,0,0,0,1.27,0l4.72-2.73a3.81,3.81,0,0,1,3.83,6.59,1.27,1.27,0,0,0-.63,1.18A1.24,1.24,0,0,0,42.34,15c9.73,4.07,16,12.87,16,22.4C58.37,49.46,48.68,59.71,35.33,61.8Z"/><path class="cls-2" d="M36.81,44.41H24.12A1.26,1.26,0,0,0,23,46.25l6.34,12.68a1.27,1.27,0,0,0,1.14.7,1.26,1.26,0,0,0,1.13-.7L38,46.24a1.27,1.27,0,0,0-1.14-1.83ZM30.47,55.53,26.17,47h8.59Z"/><circle class="cls-2" cx="19.05" cy="35.53" r="2.54"/><circle class="cls-2" cx="41.89" cy="35.53" r="2.54"/></g></g></g></svg>