<svg xmlns="http://www.w3.org/2000/svg" viewBox="0 0 11.41 11.41"><defs><style>.cls-1{fill:#f3a899;}</style></defs><title>help</title><g id="Layer_2" data-name="Layer 2"><g id="Panel"><path class="cls-1" d="M5.63,0a5.71,5.71,0,1,0,5.78,5.63A5.71,5.71,0,0,0,5.63,0Zm0,9.18h0a.83.83,0,0,1,0-1.66h0a.83.83,0,1,1,0,1.66Zm2-4A3.69,3.69,0,0,1,7,5.74L6.62,6a1,1,0,0,0-.35.42,1,1,0,0,0,0,.36v.06H4.89V6.7c0-.46,0-.73.22-1a4.92,4.92,0,0,1,1-.8,1.29,1.29,0,0,0,.23-.24.87.87,0,0,0,.2-.5,1,1,0,0,0-.18-.56A.75.75,0,0,0,5.7,3.4.7.7,0,0,0,5,3.71a1.16,1.16,0,0,0-.2.66v.06H3.46V4.37a2.06,2.06,0,0,1,.89-1.8,2.38,2.38,0,0,1,1.29-.34,2.76,2.76,0,0,1,1.66.48A1.65,1.65,0,0,1,8,4.14,1.64,1.64,0,0,1,7.65,5.13Z"/></g></g></svg>