<svg xmlns="http://www.w3.org/2000/svg" viewBox="0 0 13.82 17.98"><defs><style>.cls-1{fill:#fff;}</style></defs><title>locker</title><g id="Layer_2" data-name="Layer 2"><g id="Panel"><path class="cls-1" d="M12.84,7.26h-.35V5.62A5.6,5.6,0,0,0,7.07,0H6.75A5.6,5.6,0,0,0,1.33,5.62V7.26H1A1.14,1.14,0,0,0,0,8.51v8.22A1.14,1.14,0,0,0,1,18H12.84a1.14,1.14,0,0,0,1-1.25V8.51A1.14,1.14,0,0,0,12.84,7.26ZM8,12.61V15.1a.53.53,0,0,1-.52.52H6.32a.53.53,0,0,1-.52-.52V12.61a1.46,1.46,0,0,1-.44-1.06,1.48,1.48,0,0,1,1.39-1.5h.32a1.48,1.48,0,0,1,1.39,1.5A1.46,1.46,0,0,1,8,12.61Zm2.16-5.35H3.64V5.62a3.27,3.27,0,1,1,6.54,0V7.26Z"/></g></g></svg>