<svg xmlns="http://www.w3.org/2000/svg" viewBox="0 0 73.73 76.43"><defs><style>.cls-1{opacity:0.2;}.cls-2{fill:#fff;}</style></defs><title>pro-plan</title><g id="Layer_2" data-name="Layer 2"><g id="Panel"><g class="cls-1"><path class="cls-2" d="M73.06,25.24,66.68,21v-.62A13.65,13.65,0,0,0,60.26,8.81a6.57,6.57,0,0,0-.29-5A6.64,6.64,0,0,0,51.12.65a6.54,6.54,0,0,0-2.56,2.16,6.22,6.22,0,0,0-.71.29A6.61,6.61,0,0,0,45,5.63a1.5,1.5,0,0,0,1.08,2.26,3.76,3.76,0,0,1,.89.23,13.68,13.68,0,0,0-7.64,12.26v9.14c-10.1-5.21-23.63,1.19-24.2,1.46a1.5,1.5,0,0,0-.83,1.55,29.87,29.87,0,0,0,.6,3.06H10.69a10.13,10.13,0,0,0,1-7.08C10.3,24,4.64,22,4.4,21.93a1.49,1.49,0,0,0-1.68.5c-.15.2-3.76,5-2.42,9.48,1,3.39,4.54,5.37,6.31,6.17v1.39a30.05,30.05,0,0,0,28.76,30v4H31.31a1.5,1.5,0,0,0,0,3H48.67a1.5,1.5,0,0,0,0-3H44.61v-5A30,30,0,0,0,66.67,39.78s0-.05,0-.07V30.37l6.12-2.51a1.49,1.49,0,0,0,.26-2.62Zm-65.53,10c-1.4-.67-3.75-2.09-4.37-4.16s.45-4.39,1.31-5.85C6,26,8.19,27.41,8.78,29.37S8.36,33.75,7.53,35.21ZM57.28,5.06a3.67,3.67,0,0,1,.26,2.43l-.42-.14a5.84,5.84,0,0,0-.42-1.12A6.58,6.58,0,0,0,53.42,3,3.66,3.66,0,0,1,57.28,5.06Zm-8.15.73a3.69,3.69,0,0,1,1-.3h.07a3.58,3.58,0,0,1,1.77.16,3.72,3.72,0,0,1,1.58,1.09H53A14.2,14.2,0,0,0,50.48,7a6.67,6.67,0,0,0-1.41-1.13Zm-10.9,26.5c7.34,4,9.94,14.42,10.61,17.84-3.22,1.32-13.38,4.9-20.73.94S18.16,36.65,17.49,33.23C20.71,31.9,30.87,28.32,38.23,32.29Zm3.39,41.15H38.36v-4a29.28,29.28,0,0,0,3.26-.36Zm-5-6.94h0a27.06,27.06,0,0,1-27-27v-.89h6.18c1.59,5,4.8,11.82,10.92,15.12a19.82,19.82,0,0,0,9.44,2.17,38.7,38.7,0,0,0,15-3.5A1.47,1.47,0,0,0,52,50.83,40,40,0,0,0,48.4,39.4L63.64,41A27.1,27.1,0,0,1,36.66,66.5ZM63.69,38,46.55,36.2a21.5,21.5,0,0,0-4.19-4.71V20.38a10.67,10.67,0,1,1,21.33,0V38Zm3-10.9V24.58l2.38,1.59Z"/></g><g class="cls-1"><path class="cls-2" d="M38.82,47.9a1.49,1.49,0,0,0-1.58-1.4l-1.13,0a10.46,10.46,0,0,1-5-1.05c-2.91-1.56-4.81-5.27-5.88-8.07a23.45,23.45,0,0,1,5-.59,10.53,10.53,0,0,1,5,1,1.49,1.49,0,1,0,1.41-2.63,13.47,13.47,0,0,0-6.41-1.41,27.58,27.58,0,0,0-7.33,1.1,1.48,1.48,0,0,0-1,1.9c1.27,3.9,3.66,9,7.83,11.28a13.35,13.35,0,0,0,6.41,1.41c.42,0,.87,0,1.31,0A1.5,1.5,0,0,0,38.82,47.9Z"/></g><g class="cls-1"><path class="cls-2" d="M44.49,46.7a1.47,1.47,0,0,0-.08-.28,1.3,1.3,0,0,0-.14-.26,1.24,1.24,0,0,0-.18-.22,2.11,2.11,0,0,0-.23-.19l-.26-.14-.28-.08a1.42,1.42,0,0,0-.58,0l-.28.08-.26.14a1.37,1.37,0,0,0-.22.19,1.3,1.3,0,0,0-.19.22,2.15,2.15,0,0,0-.14.26c0,.09-.06.19-.08.28a1.5,1.5,0,0,0,0,.29,1.53,1.53,0,0,0,0,.3,2.76,2.76,0,0,0,.08.27,2.15,2.15,0,0,0,.14.26,1.37,1.37,0,0,0,.19.23,1,1,0,0,0,.22.18,1.61,1.61,0,0,0,.54.23,1.43,1.43,0,0,0,.29,0,1.36,1.36,0,0,0,.29,0,1.52,1.52,0,0,0,1.09-.9,1.38,1.38,0,0,0,.08-.27,1.53,1.53,0,0,0,0-.3A1.5,1.5,0,0,0,44.49,46.7Z"/></g><g class="cls-1"><path class="cls-2" d="M55.86,20.4a1.49,1.49,0,0,0-1.49,1.49v.83a1.49,1.49,0,1,0,3,0v-.83A1.49,1.49,0,0,0,55.86,20.4Z"/></g></g></g></svg>