<svg xmlns="http://www.w3.org/2000/svg" viewBox="0 0 90.65 23.19"><defs><style>.cls-1{fill:#fff;}.cls-2{fill:#e75234;}.cls-3{font-size:8.32px;fill:#e55039;font-family:OpenSans-Bold, Open Sans;font-weight:700;}</style></defs><title>recommended</title><g id="Layer_2" data-name="Layer 2"><g id="Panel"><path class="cls-1" d="M90.65,0,90,0H10.68A10.69,10.69,0,0,0,0,10.63v1.92A10.7,10.7,0,0,0,10.68,23.19H90l.64,0Z"/><path class="cls-2" d="M12.09,14.09a4,4,0,0,0,.72.77,6.39,6.39,0,0,0,.87.63c.29.17.63.35,1,.52h0a3.13,3.13,0,0,1-.42-1.4,1.18,1.18,0,0,1,.16-.61,1.77,1.77,0,0,1,.4-.51,6.64,6.64,0,0,1,.55-.45c.2-.15.4-.31.6-.49a4.08,4.08,0,0,0,.55-.55,2.39,2.39,0,0,0,.41-.7,2.66,2.66,0,0,0,.15-.9,4,4,0,0,0-.17-1.16,3.58,3.58,0,0,0-.46-.94,4.21,4.21,0,0,0-.71-.77,6.68,6.68,0,0,0-.87-.62,9.44,9.44,0,0,0-1-.52h0a3.27,3.27,0,0,1,.41,1.4,1.27,1.27,0,0,1-.15.6,2.19,2.19,0,0,1-.4.52,6.86,6.86,0,0,1-.56.45l-.6.48a5.71,5.71,0,0,0-.55.55,2.22,2.22,0,0,0-.4.71,2.57,2.57,0,0,0-.16.9,3.6,3.6,0,0,0,.18,1.15A3.16,3.16,0,0,0,12.09,14.09Z"/><text class="cls-3" transform="translate(21.75 14.36)">RECOMMENDED</text></g></g></svg>