<svg xmlns="http://www.w3.org/2000/svg" viewBox="0 0 189.74 295.18"><defs><style>.cls-1{fill:#f0f1f1;}.cls-2{fill:#5bb5dc;}.cls-3{fill:#d4aa8c;}.cls-4{fill:#ecd1bd;}.cls-5{fill:#33435a;}.cls-6{fill:#f6f6f6;}.cls-7{fill:#00a391;}.cls-8{fill:#116159;}.cls-9{fill:#c1ab80;}.cls-10{opacity:0.62;}.cls-11{fill:#eaeaea;}.cls-12{fill:#f5d9a0;}.cls-13{fill:#e75234;}.cls-14{fill:#fffaf0;}.cls-15{fill:#00adbf;}.cls-16,.cls-20{fill:#85382a;}.cls-17{fill:#eaecec;}.cls-18{fill:#c5c6c7;}.cls-19{fill:#e5e5e5;}.cls-20{opacity:0.47;}.cls-21{fill:#d0e8f4;opacity:0.2;}.cls-22{fill:#3c3b3e;}</style></defs><title>safe-payment</title><g id="Layer_2" data-name="Layer 2"><g id="Panel"><path class="cls-1" d="M87.05,257.71a86.62,86.62,0,0,0-16.66,1.38c-2.09.41-4.14,1.33-6.24,1.7-4.18.75-8.3,2.13-12.5,2.76-3.38.52-6.78.82-10.15,1.47a20.17,20.17,0,0,1-9.81-.54c-2.32-.74-4.65-1.16-6.94-2.36a17.07,17.07,0,0,0-8-2.27c-3.8,0-7.5,0-11.13,2.42a11.86,11.86,0,0,0-3.81,4c-2.22,4-2.52,14-.3,18.11,3.73,7,11.69,9.71,16.91,9.84,5.73.14,11.3-.62,17-1.07,5.33-.42,10.65-1,16-1,10.9,0,21.81,0,32.69-1.31,10.23-1.23,20.48-.81,30.73-.81,10.51,0,20.95.15,31.38,2.66,4.55,1.1,9.18,1.48,13.75,2.24,4.09.69,8,0,12.1-.64a20.08,20.08,0,0,0,9.93-4.79c2.46-2.11,6.85-8.68,7.61-13.72,2.11-14.15-29.82-13.81-34.73-13.78-5.48,0-11,.36-16.49,0a23.33,23.33,0,0,1-6.83-1.86c-2.24-.88-4.5-.66-6.77-1-9.48-1.55-19-1.32-28.49-1.32C93.24,257.74,90.14,257.69,87.05,257.71Z"/><path class="cls-2" d="M62.86,116.27A39.14,39.14,0,0,1,58,111.06c-3.8-4.89-6.76-10.47-10.38-15.52a1,1,0,0,1-.26-.64.88.88,0,0,1,.22-.48c1.42-1.9,6.13-4.83,8.53-4.36,1.24.24,1.81,1.69,2.65,2.9l5.93,8.59,5.1-16.7a35.79,35.79,0,0,1,2.91-7.45,1.93,1.93,0,0,1,.86-.9,1.75,1.75,0,0,1,1.6.49,16.28,16.28,0,0,1,6,9.83A29.42,29.42,0,0,1,81,96.5a104.88,104.88,0,0,1-6.47,24,2,2,0,0,1-.47.8,1.71,1.71,0,0,1-1.5.17A21.92,21.92,0,0,1,62.86,116.27Z"/><path class="cls-3" d="M48,81.49l.6,0a9.1,9.1,0,0,1,4.86,1.2,2.41,2.41,0,0,1,1.18,2.52,4.06,4.06,0,0,1-1,1.37c-2.51,2.72,4.15,7.71.93,10.57a4.22,4.22,0,0,1-1.39.94,3.33,3.33,0,0,1-1.33.11c-.35,0-.91,0-1.14-.27a6.61,6.61,0,0,1-.43-1.79c-.28-1.19-.56-2.39-.85-3.59s-.7-2.53-1.68-2.91a4,4,0,0,1-.66-.23,2,2,0,0,1-.58-.59c-.82-1.14-2.84-3.84-2.33-5.39A2.9,2.9,0,0,1,46,81.71,6,6,0,0,1,48,81.49Z"/><path class="cls-4" d="M73.76,269.06l-3.45-.21A96.71,96.71,0,0,1,69.62,255c1.6.93,3.81.36,4.11,3.55C73.83,259.58,73.53,269,73.76,269.06Z"/><path class="cls-5" d="M70.36,266.7a2.08,2.08,0,0,0-1.45,1.15,7,7,0,0,1-.62,1.12,2,2,0,0,1-.88.54,18.09,18.09,0,0,0-4,1.63,5.35,5.35,0,0,1-1.62.69,1,1,0,0,0-.49.21.9.9,0,0,0-.21.64A2.66,2.66,0,0,0,62.48,275c.93.51,2,.58,3,1a5.74,5.74,0,0,0,3.52.32,23.05,23.05,0,0,0,6.81-2.94,1.09,1.09,0,0,0,.52-.48,2.37,2.37,0,0,0,.16-.95c0-1.86.13-4.7-1.63-4.71-.75,0-1.44.65-2.25.57C71.92,267.74,70.87,266.63,70.36,266.7Z"/><path class="cls-5" d="M55.73,203.51a31.25,31.25,0,0,0-.79,5.52,30.74,30.74,0,0,0,.65,6l9.27,52.6,7.72-.23A20.59,20.59,0,0,0,77,266a22.41,22.41,0,0,0,.12-2.85c-1-21-3.45-37-1.67-55.42.45-4.63,3.06-7.6,5.34-11.52,7.74-13.33,9.68-24.78,13.32-33.64.23-.56-21.12-4.05-22.17-4.22-2.69-.44-5-.5-6.59,2.25-1.77,3-2.1,7.53-2.84,11q-1.62,7.54-3.21,15.1Q57.47,195.09,55.73,203.51Z"/><path class="cls-4" d="M100.64,270.77l-3.71.17a94.45,94.45,0,0,1-2.06-14.18c1.8.79,4.11-.05,4.73,3.2C99.81,261,100.4,270.78,100.64,270.77Z"/><path class="cls-5" d="M96.78,268.72a2.29,2.29,0,0,0-1.45,1.34,7.54,7.54,0,0,1-.55,1.22,2.14,2.14,0,0,1-.89.65A19.57,19.57,0,0,0,89.77,274a5.85,5.85,0,0,1-1.67.89,1.16,1.16,0,0,0-.5.27.9.9,0,0,0-.17.68,2.69,2.69,0,0,0,1.7,2.19c1.05.43,2.21.39,3.28.74a6.4,6.4,0,0,0,3.8-.05,26,26,0,0,0,7-3.77,1.2,1.2,0,0,0,.5-.54,2.36,2.36,0,0,0,.08-1c-.14-1.92-.31-4.85-2.19-4.68-.8.08-1.48.83-2.35.84C98.55,269.62,97.31,268.59,96.78,268.72Z"/><path class="cls-5" d="M86.07,229.69c2.17,12.24,5.39,24.38,5.54,36.84A2.78,2.78,0,0,0,92,268.2a2.2,2.2,0,0,0,1.47.67,19.23,19.23,0,0,0,10.25-1.15c.35-6.49-1.12-12.91-1.8-19.37-.83-8-.46-16-.06-24,1-19.53,7.49-39.84,6.84-59.38-.13-3.7-5.72-6.71-6.91-10.18a44.6,44.6,0,0,1-21.88-1.86c.09,4,.76,7.61,1.17,11.52.54,5.16.29,10.53.47,15.71.36,10.6.92,21.19,2,31.73C84.21,217.86,85,223.8,86.07,229.69Z"/><path class="cls-6" d="M98.45,72.15A12.12,12.12,0,0,1,102.61,75c3.45,3.79,6.19,9,8.34,13.78a103.2,103.2,0,0,1,8.39,31.55c1.89,18.28-.69,36.81-4.15,54.86q-31.43-11-63.39-19.9c2.29.64,9.92-13,11.05-15,2.94-5.34,6.37-12.13,7-18.46,1.1-11.2-1.08-22.49.4-33.67.56-4.25.37-8.08,3.22-11.31a19.58,19.58,0,0,1,11.7-6.34A26,26,0,0,1,98.45,72.15Z"/><path class="cls-3" d="M84.57,73.89c.09.27,4.44,0,4.91,0,1.5,0,2.23-.47,2.48-2.18a14.77,14.77,0,0,1,1.73-5.17c.74-1.3,1.87-2.2,2.66-3.45a20.62,20.62,0,0,0,1.73-3.53,29.68,29.68,0,0,0,1.57-6.27c.23-1.64-.27-3.24-.38-4.9a10,10,0,0,0-.7-3.66c-.93-2-3-3-5-3.61-5.66-1.68-16.43-1.1-17.33,6.92a34.85,34.85,0,0,0-.06,5.31c.14,3.74-.79,10.63,3.06,12.72,1.08.59,2.43.6,3.39,1.4C84.34,68.9,83.83,71.74,84.57,73.89Z"/><path class="cls-5" d="M110.8,42.47a13.15,13.15,0,0,1-3.75-3.79,9.83,9.83,0,0,0-3.93-3.53c-1.47-.58-3.07-.4-4.6-.68a33.6,33.6,0,0,1-4.69-1.67A14.11,14.11,0,0,0,80.5,35c-2.18,1.74-6,6.06-5,9.36a2.57,2.57,0,0,0,1.38,1.62c.85.4,1.93.13,2.75.57a3.4,3.4,0,0,1,1.2,1.54,11.67,11.67,0,0,0,2.75,3.8,9.09,9.09,0,0,0,4.15,1.44,1.74,1.74,0,0,0,1,0c.44-.19.68-.69,1-1.08a2.2,2.2,0,0,1,2.4-1A1.7,1.7,0,0,1,93,53.57c-.5.83-1.61.84-2.53.85-.29,0-.64.08-.71.37a.81.81,0,0,0,.17.56l3.35,5.23c.68,1.06,2,4.48,3.49,3.31,2.52-2,3.23-5.21,5.57-7.1a25.32,25.32,0,0,0,3-2.87c1.77-2,2.94-4.5,5-6.16.79-.62,1.71-1,2.51-1.66a7.1,7.1,0,0,0,2.59-4.32C114.46,43.23,112.34,43.31,110.8,42.47Z"/><path class="cls-7" d="M124.38,165.65l-88.67-14a3.61,3.61,0,0,1-2.85-4.12l8.22-59.28a3.44,3.44,0,0,1,3.84-3.06l88.68,14a3.6,3.6,0,0,1,2.84,4.12l-8.22,59.28A3.44,3.44,0,0,1,124.38,165.65Z"/><path class="cls-8" d="M36.32,150.52l87.14,13.78a3.44,3.44,0,0,0,3.84-3.06L132,127.53C104.74,151.1,57.57,151.59,36.32,150.52Z"/><path class="cls-9" d="M55.71,123.89l-12-1.89a2.52,2.52,0,0,1-2-2.88l1.15-8.33a2.4,2.4,0,0,1,2.7-2.13l12,1.89a2.52,2.52,0,0,1,2,2.88l-1.15,8.33A2.41,2.41,0,0,1,55.71,123.89Z"/><g class="cls-10"><path class="cls-9" d="M58.39,121.87l.76-5.45c-4.65,3.52-12.37,4.38-17,4.56a2.22,2.22,0,0,0,1.51,1l12.22,1.93A2.28,2.28,0,0,0,58.39,121.87Z"/></g><polygon class="cls-11" points="59.12 135.78 39.84 132.73 40.75 126.14 60.04 129.19 59.12 135.78"/><polygon class="cls-11" points="80.63 139.18 61.35 136.13 62.26 129.54 81.55 132.59 80.63 139.18"/><polygon class="cls-11" points="102.14 142.58 82.86 139.53 83.77 132.94 103.06 135.99 102.14 142.58"/><polygon class="cls-11" points="123.65 145.98 104.37 142.93 105.28 136.35 124.57 139.4 123.65 145.98"/><path class="cls-12" d="M110.3,109.94a6.21,6.21,0,0,1,3.17-4.67,5.55,5.55,0,0,0-3.1-1.61,5.88,5.88,0,0,0-6.58,5.25,6.16,6.16,0,0,0,4.87,7.06,5.38,5.38,0,0,0,3.41-.57A6.49,6.49,0,0,1,110.3,109.94Z"/><path class="cls-13" d="M116.8,111A6.19,6.19,0,0,1,120,106.3a5.55,5.55,0,0,0-3.1-1.61,5.45,5.45,0,0,0-3.41.58,6.43,6.43,0,0,1,1.77,5.45,6.22,6.22,0,0,1-3.17,4.68,5.6,5.6,0,0,0,3.1,1.6,5.4,5.4,0,0,0,3.4-.57A6.52,6.52,0,0,1,116.8,111Z"/><path class="cls-14" d="M115.24,110.72a6.43,6.43,0,0,0-1.77-5.45,6.21,6.21,0,0,0-3.17,4.67,6.49,6.49,0,0,0,1.77,5.46A6.22,6.22,0,0,0,115.24,110.72Z"/><path class="cls-15" d="M123.38,105.72a5.35,5.35,0,0,0-3.4.58,6.46,6.46,0,0,1,1.77,5.45,6.23,6.23,0,0,1-3.18,4.68,5.63,5.63,0,0,0,3.11,1.6,5.89,5.89,0,0,0,6.58-5.25A6.16,6.16,0,0,0,123.38,105.72Z"/><path class="cls-16" d="M121.75,111.75A6.46,6.46,0,0,0,120,106.3,6.19,6.19,0,0,0,116.8,111a6.52,6.52,0,0,0,1.77,5.46A6.23,6.23,0,0,0,121.75,111.75Z"/><polygon class="cls-17" points="122.72 152.67 81.93 146.22 82.21 144.22 123 150.67 122.72 152.67"/><polygon class="cls-18" points="122.13 156.96 90.98 152.03 91.25 150.04 122.41 154.97 122.13 156.96"/><path class="cls-17" d="M59.54,113.56l.07-.48-8.12-1.29.3-2.15-.44-.07-.3,2.15-8.12-1.28-.07.48L51,112.2l-.28,2.06L42.58,113l-.07.48,8.12,1.29h0l.24,0c.08,0,2,.18,2,1.79a1.29,1.29,0,0,1-.39.82,2.35,2.35,0,0,1-2,.37l-8.38-1.33-.07.48,8.16,1.29-.29,2.09L41.74,119l-.06.48,8.15,1.29-.3,2.16L50,123l.3-2.16,8.08,1.28.06-.48-8.07-1.28.29-2.1a2.57,2.57,0,0,0,2.09-.5,1.79,1.79,0,0,0,.52-.94l5.72.91.06-.48-5.76-.91a2.34,2.34,0,0,0-2.13-2l.29-2Z"/><path class="cls-18" d="M122.73,152.67l.27-2L93.25,146q-2.67.65-5.34,1.19Z"/><path class="cls-19" d="M124.57,139.4,115.85,138a101.54,101.54,0,0,1-11.45,4.71l0,.2,19.28,3Z"/><path class="cls-8" d="M42.12,89,40.69,99.3c.86-4.34,4.14-13.55,16.39-11.61L46,85.93A3.44,3.44,0,0,0,42.12,89Z"/><path class="cls-3" d="M116.2,39.78l-.68.16a1.19,1.19,0,0,0-.39.16,1.07,1.07,0,0,0-.25.34,18.38,18.38,0,0,0-1.65,4.46c-.16.58-.2.63.14,1.15a20,20,0,0,0,1.24,1.67c.31.9.66,1.79.9,2.71.62,2.35-.42,8,2.39,8.71a4.21,4.21,0,0,0,1.64.2,3.64,3.64,0,0,0,1.23-.54c.31-.18.83-.39.92-.77a7.08,7.08,0,0,0-.36-1.81l-.72-3.62c-.24-1.19-.42-2.61.31-3.41a5.9,5.9,0,0,0,.49-.51,2.17,2.17,0,0,0,.27-.8,15.22,15.22,0,0,0,.32-3.24c0-1-.61-1.4-1.19-2.06s-.78-1.67-1.32-2.41a1.92,1.92,0,0,0-2.12-.61C117,39.62,116.59,39.7,116.2,39.78Z"/><path class="cls-6" d="M125.9,84.59c-.06-2.6-.16-5.25-.1-8a86.86,86.86,0,0,0-2.52-22.74,19.84,19.84,0,0,0-9,1.3c.4,8.5.49,17.14-2.74,25.08-.13.32-.32.67-.64.72s-.59-.21-.81-.46c-2.11-2.41-3.87-5.27-6.48-7.07s-6.51-2.1-8.49.44c-1.27,1.63-1.4,4-1.07,6a23.38,23.38,0,0,0,3.75,8.86,42.33,42.33,0,0,0,10,10.77c2.66,2,5.57,3.68,8,6.06a5.13,5.13,0,0,0,2.23,1.64c1.66.4,3.11-1.21,4-2.74C125.93,98,126.05,91.45,125.9,84.59Z"/><g id="_Group_" data-name="&lt;Group&gt;"><g id="_Group_2" data-name="&lt;Group&gt;"><g id="_Group_3" data-name="&lt;Group&gt;"><path id="_Path_" data-name="&lt;Path&gt;" class="cls-5" d="M135,29.65h-4V15.49c0-6.18-4.7-11.21-10.48-11.21S110,9.31,110,15.49V29.65h-4V15.49C106,7,112.49,0,120.49,0S135,7,135,15.49Z"/></g><g id="_Group_4" data-name="&lt;Group&gt;"><path id="_Path_2" data-name="&lt;Path&gt;" class="cls-13" d="M141.11,51.09a1.61,1.61,0,0,1-1.55,1.66H101.41a1.62,1.62,0,0,1-1.55-1.66V24.59a1.62,1.62,0,0,1,1.55-1.66h38.15a1.61,1.61,0,0,1,1.55,1.66Z"/></g></g></g><path class="cls-20" d="M141.11,51.09V34.85c-12.57,11.37-30.68,15.64-41,17.21a1.53,1.53,0,0,0,1.25.69h38.15A1.61,1.61,0,0,0,141.11,51.09Z"/><path class="cls-5" d="M123.89,33.35a3.41,3.41,0,1,0-6.81,0,3.73,3.73,0,0,0,1.38,2.93l-1.09,8.24h6.23l-1.09-8.24A3.73,3.73,0,0,0,123.89,33.35Z"/><path class="cls-21" d="M101.16,26.08v5.7c.14-2.42,1.23-7.69,8-7.69H103A1.93,1.93,0,0,0,101.16,26.08Z"/><path class="cls-22" d="M117.37,44.52s4.62-1.4,5.14-8.24l1.09,8.24Z"/></g></g></svg>